<?xml version="1.0" encoding="UTF-8"?>
<!DOCTYPE svg PUBLIC "-//W3C//DTD SVG 1.1//EN" "http://www.w3.org/Graphics/SVG/1.1/DTD/svg11.dtd">
<!-- Creator: CorelDRAW 2021 (64-Bit) -->
<svg xmlns="http://www.w3.org/2000/svg" xml:space="preserve" width="80px" height="40px" version="1.1" style="shape-rendering:geometricPrecision; text-rendering:geometricPrecision; image-rendering:optimizeQuality; fill-rule:evenodd; clip-rule:evenodd"
viewBox="0 0 90 50"
 xmlns:xlink="http://www.w3.org/1999/xlink"
 xmlns:xodm="http://www.corel.com/coreldraw/odm/2003">
 <defs>
  <style type="text/css">
   <![CDATA[
    .str2 {stroke:#2B2A29;stroke-width:1.39;stroke-linejoin:round;stroke-miterlimit:22.926}
    .str3 {stroke:#2B2A29;stroke-width:1.47;stroke-linejoin:round;stroke-miterlimit:22.926}
    .str0 {stroke:#2B2A29;stroke-width:0.9;stroke-linejoin:round;stroke-miterlimit:22.926}
    .str1 {stroke:#2B2A29;stroke-width:0.9;stroke-linejoin:round;stroke-miterlimit:22.926;stroke-dasharray:10.000000 10.000000}
    .fil1 {fill:none}
    .fil0 {fill:#F9FAFF}
    .fil3 {fill:#2B2A29}
    .fil2 {fill:#2B2A29;fill-rule:nonzero}
   ]]>
  </style>
 </defs>
 <g id="Layer_x0020_1">
  <metadata id="CorelCorpID_0Corel-Layer"/>
  <g id="_1521057608256">
   <path class="fil0" d="M76.73 820.29c13.06,4.95 26.94,3.89 41.03,0.23l-9.22 39.64c-14.14,6.28 -27.11,5.98 -39.18,0.47 -12,-5.48 -24.37,-6.66 -38.15,0.11l12.56 -38.6c9.95,-5.84 20.76,-6.47 32.96,-1.85z"/>
   <path class="fil1 str0" d="M76.73 820.29c13.06,4.95 26.94,3.89 41.03,0.23l-9.22 39.64c-14.14,6.28 -27.11,5.98 -39.18,0.47 -12,-5.48 -24.37,-6.66 -38.15,0.11l12.56 -38.6c9.95,-5.84 20.76,-6.47 32.96,-1.85z"/>
   <path class="fil0" d="M41.81 818.1l-10.6 42.64c9.07,-6.95 20,-11.53 33.42,-7.6 9.95,2.91 18.98,5.37 27.65,-1.16l11.3 -43.56c-8.89,3.74 -19,6.53 -29.5,4.15 -13.11,-2.97 -23.27,-2.01 -32.27,5.53z"/>
   <path class="fil1 str0" d="M41.81 818.1l-10.6 42.64c9.07,-6.95 20,-11.53 33.42,-7.6 9.95,2.91 18.98,5.37 27.65,-1.16l11.3 -43.56c-8.89,3.74 -19,6.53 -29.5,4.15 -13.11,-2.97 -23.27,-2.01 -32.27,5.53z"/>
   <path class="fil0" d="M75.58 843.46c10.87,-4.88 18.54,1.45 16.7,8.52l11.3 -43.56c-1.38,-4.88 -9.22,-9.98 -17.63,-3.22l-10.37 38.26z"/>
   <path class="fil1 str0" d="M75.58 843.46c10.87,-4.88 18.54,1.45 16.7,8.52l11.3 -43.56c-1.38,-4.88 -9.22,-9.98 -17.63,-3.22l-10.37 38.26z"/>
  </g>
  <g id="_1521057606336">
   <path class="fil0" d="M167.58 88.59l-0.17 -32.81c6.2,2.23 12.52,2.98 17.91,0 12.05,-6.64 21.56,-4.96 32.81,0 5.62,2.48 12.52,2.16 19.58,0l0 32.64c-6.37,2.47 -13.06,3.47 -19.42,0.67 -11.53,-5.08 -22.09,-5.46 -32.8,-0.17 -5.97,2.95 -12.05,2.76 -17.91,-0.33z"/>
   <path class="fil1 str0" d="M167.58 88.59l-0.17 -32.81c6.2,2.23 12.52,2.98 17.91,0 12.05,-6.64 21.56,-4.96 32.81,0 5.62,2.48 12.52,2.16 19.58,0l0 32.64c-6.37,2.47 -13.06,3.47 -19.42,0.67 -11.53,-5.08 -22.09,-5.46 -32.8,-0.17 -5.97,2.95 -12.05,2.76 -17.91,-0.33z"/>
   <path class="fil1 str1" d="M185.32 55.78l0.17 33.14m32.72 -32.8l0.17 33.14"/>
   <polygon class="fil2" points="244.57,55.48 241.14,59.21 242.81,59.21 242.81,86.66 241.14,86.66 244.57,90.38 248,86.66 246.32,86.66 246.32,59.21 248,59.21 "/>
   <path class="fil3" d="M213.9 93.18c-3.45,-1.1 -6.62,-3.19 -11.08,-3.3l0 0 -0.06 0 -0.07 0 0 0c-4.46,0.11 -7.63,2.2 -11.08,3.3 -7.4,2.84 -13.91,2.58 -21.09,0.07l0.02 -2.47 -4.54 3.87 4.52 4.35 0 -2.51c6.68,2.17 15.04,3.39 23.26,-0.38 2.98,-1.36 5.58,-1.88 8.91,-1.88l0.13 0c3.32,0 5.93,0.52 8.91,1.88 8.22,3.77 16.58,2.55 23.26,0.38l0 2.51 4.52 -4.35 -4.54 -3.87 0.02 2.47c-7.18,2.51 -13.69,2.77 -21.09,-0.07z"/>
  </g>
  <g id="_1521057605712">
   <path class="fil0" d="M190.98 1.61c0.68,0 1.34,0.03 2,0.09 -0.04,0.3 -0.07,0.62 -0.07,0.95 0,1.75 0.63,3.16 1.41,3.16 0.78,0 1.41,-1.41 1.41,-3.16 0,-0.19 0,-0.38 -0.02,-0.56 1.53,0.32 3,0.78 4.41,1.38 0.15,1.35 0.7,2.34 1.36,2.34 0.43,0 0.82,-0.44 1.08,-1.13 7.05,4.02 11.81,11.62 11.81,20.32 0,3.49 -0.77,6.79 -2.14,9.77 -0.08,-1.59 -0.67,-2.82 -1.4,-2.82 -0.78,0 -1.41,1.42 -1.41,3.17 0,1.37 0.39,2.54 0.94,2.97 -1.95,2.89 -4.53,5.31 -7.54,7.08 -0.18,-1.28 -0.71,-2.21 -1.34,-2.21 -0.78,0 -1.41,1.41 -1.41,3.16 0,0.15 0,0.29 0.01,0.43 -1.47,0.61 -3,1.09 -4.61,1.4 0.17,-0.52 0.26,-1.15 0.26,-1.83 0,-1.75 -0.63,-3.16 -1.41,-3.16 -0.78,0 -1.41,1.41 -1.41,3.16 0,0.83 0.14,1.59 0.38,2.15 -0.76,0.08 -1.53,0.11 -2.31,0.11 -0.93,0 -1.85,-0.05 -2.75,-0.16 0.21,-0.56 0.35,-1.29 0.35,-2.1 0,-1.75 -0.63,-3.16 -1.41,-3.16 -0.78,0 -1.41,1.41 -1.41,3.16 0,0.64 0.09,1.23 0.23,1.73 -1.59,-0.35 -3.12,-0.86 -4.57,-1.5l0.01 -0.23c0,-1.75 -0.64,-3.16 -1.41,-3.16 -0.59,0 -1.09,0.81 -1.31,1.95 -6.67,-4.12 -11.12,-11.5 -11.12,-19.91 0,-3.64 0.84,-7.08 2.32,-10.15 0.21,1.16 0.71,1.97 1.3,1.97 0.78,0 1.41,-1.42 1.41,-3.16 0,-1 -0.2,-1.88 -0.52,-2.46 1.96,-2.68 4.47,-4.92 7.37,-6.56 0.26,0.72 0.65,1.17 1.1,1.17 0.66,0 1.21,-1.01 1.36,-2.38 1.41,-0.59 2.88,-1.05 4.4,-1.35 -0.01,0.18 -0.02,0.37 -0.02,0.57 0,1.75 0.63,3.16 1.41,3.16 0.78,0 1.41,-1.41 1.41,-3.16 0,-0.33 -0.02,-0.66 -0.07,-0.96 0.63,-0.05 1.28,-0.08 1.92,-0.08zm5.54 30.34c0.78,0 1.41,1.42 1.41,3.17 0,1.74 -0.63,3.16 -1.41,3.16 -0.77,0 -1.41,-1.42 -1.41,-3.16 0,-1.75 0.64,-3.17 1.41,-3.17zm7.16 0c0.78,0 1.41,1.42 1.41,3.17 0,1.74 -0.63,3.16 -1.41,3.16 -0.78,0 -1.41,-1.42 -1.41,-3.16 0,-1.75 0.63,-3.17 1.41,-3.17zm-14.31 0c0.78,0 1.41,1.42 1.41,3.17 0,1.74 -0.63,3.16 -1.41,3.16 -0.78,0 -1.41,-1.42 -1.41,-3.16 0,-1.75 0.63,-3.17 1.41,-3.17zm-7.15 0c0.78,0 1.41,1.42 1.41,3.17 0,1.74 -0.63,3.16 -1.41,3.16 -0.78,0 -1.41,-1.42 -1.41,-3.16 0,-1.75 0.63,-3.17 1.41,-3.17zm-7.16 0c0.78,0 1.42,1.42 1.42,3.17 0,1.74 -0.64,3.16 -1.42,3.16 -0.78,0 -1.41,-1.42 -1.41,-3.16 0,-1.75 0.63,-3.17 1.41,-3.17zm23.11 -11c0.78,0 1.42,1.42 1.42,3.16 0,1.75 -0.64,3.16 -1.42,3.16 -0.77,0 -1.4,-1.41 -1.4,-3.16 0,-1.74 0.63,-3.16 1.4,-3.16zm-7.15 0c0.78,0 1.41,1.42 1.41,3.16 0,1.75 -0.63,3.16 -1.41,3.16 -0.78,0 -1.41,-1.41 -1.41,-3.16 0,-1.74 0.63,-3.16 1.41,-3.16zm-7.15 0c0.78,0 1.41,1.42 1.41,3.16 0,1.75 -0.63,3.16 -1.41,3.16 -0.78,0 -1.41,-1.41 -1.41,-3.16 0,-1.74 0.63,-3.16 1.41,-3.16zm-7.15 0c0.77,0 1.4,1.42 1.4,3.16 0,1.75 -0.63,3.16 -1.4,3.16 -0.78,0 -1.42,-1.41 -1.42,-3.16 0,-1.74 0.64,-3.16 1.42,-3.16zm-7.16 0c0.78,0 1.41,1.42 1.41,3.16 0,1.75 -0.63,3.16 -1.41,3.16 -0.78,0 -1.41,-1.41 -1.41,-3.16 0,-1.74 0.63,-3.16 1.41,-3.16zm35.77 0c0.78,0 1.41,1.42 1.41,3.16 0,1.75 -0.63,3.16 -1.41,3.16 -0.78,0 -1.41,-1.41 -1.41,-3.16 0,-1.74 0.63,-3.16 1.41,-3.16zm7.15 0c0.78,0 1.41,1.42 1.41,3.16 0,1.75 -0.63,3.16 -1.41,3.16 -0.78,0 -1.41,-1.41 -1.41,-3.16 0,-1.74 0.63,-3.16 1.41,-3.16zm-12.66 -10.45c0.79,0 1.42,1.41 1.42,3.16 0,1.74 -0.63,3.16 -1.42,3.16 -0.77,0 -1.41,-1.42 -1.41,-3.16 0,-1.75 0.64,-3.16 1.41,-3.16zm-7.15 0c0.78,0 1.41,1.41 1.41,3.16 0,1.74 -0.63,3.16 -1.41,3.16 -0.78,0 -1.41,-1.42 -1.41,-3.16 0,-1.75 0.63,-3.16 1.41,-3.16zm-7.15 0c0.78,0 1.41,1.41 1.41,3.16 0,1.74 -0.63,3.16 -1.41,3.16 -0.78,0 -1.41,-1.42 -1.41,-3.16 0,-1.75 0.63,-3.16 1.41,-3.16zm-7.15 0c0.77,0 1.4,1.41 1.4,3.16 0,1.74 -0.63,3.16 -1.4,3.16 -0.78,0 -1.41,-1.42 -1.41,-3.16 0,-1.75 0.63,-3.16 1.41,-3.16zm28.61 0c0.78,0 1.41,1.41 1.41,3.16 0,1.74 -0.63,3.16 -1.41,3.16 -0.78,0 -1.41,-1.42 -1.41,-3.16 0,-1.75 0.63,-3.16 1.41,-3.16z"/>
   <path class="fil1 str0" d="M190.98 1.61c0.68,0 1.34,0.03 2,0.09 -0.04,0.3 -0.07,0.62 -0.07,0.95 0,1.75 0.63,3.16 1.41,3.16 0.78,0 1.41,-1.41 1.41,-3.16 0,-0.19 0,-0.38 -0.02,-0.56 1.53,0.32 3,0.78 4.41,1.38 0.15,1.35 0.7,2.34 1.36,2.34 0.43,0 0.82,-0.44 1.08,-1.13 7.05,4.02 11.81,11.62 11.81,20.32 0,3.49 -0.77,6.79 -2.14,9.77 -0.08,-1.59 -0.67,-2.82 -1.4,-2.82 -0.78,0 -1.41,1.42 -1.41,3.17 0,1.37 0.39,2.54 0.94,2.97 -1.95,2.89 -4.53,5.31 -7.54,7.08 -0.18,-1.28 -0.71,-2.21 -1.34,-2.21 -0.78,0 -1.41,1.41 -1.41,3.16 0,0.15 0,0.29 0.01,0.43 -1.47,0.61 -3,1.09 -4.61,1.4 0.17,-0.52 0.26,-1.15 0.26,-1.83 0,-1.75 -0.63,-3.16 -1.41,-3.16 -0.78,0 -1.41,1.41 -1.41,3.16 0,0.83 0.14,1.59 0.38,2.15 -0.76,0.08 -1.53,0.11 -2.31,0.11 -0.93,0 -1.85,-0.05 -2.75,-0.16 0.21,-0.56 0.35,-1.29 0.35,-2.1 0,-1.75 -0.63,-3.16 -1.41,-3.16 -0.78,0 -1.41,1.41 -1.41,3.16 0,0.64 0.09,1.23 0.23,1.73 -1.59,-0.35 -3.12,-0.86 -4.57,-1.5l0.01 -0.23c0,-1.75 -0.64,-3.16 -1.41,-3.16 -0.59,0 -1.09,0.81 -1.31,1.95 -6.67,-4.12 -11.12,-11.5 -11.12,-19.91 0,-3.64 0.84,-7.08 2.32,-10.15 0.21,1.16 0.71,1.97 1.3,1.97 0.78,0 1.41,-1.42 1.41,-3.16 0,-1 -0.2,-1.88 -0.52,-2.46 1.96,-2.68 4.47,-4.92 7.37,-6.56 0.26,0.72 0.65,1.17 1.1,1.17 0.66,0 1.21,-1.01 1.36,-2.38 1.41,-0.59 2.88,-1.05 4.4,-1.35 -0.01,0.18 -0.02,0.37 -0.02,0.57 0,1.75 0.63,3.16 1.41,3.16 0.78,0 1.41,-1.41 1.41,-3.16 0,-0.33 -0.02,-0.66 -0.07,-0.96 0.63,-0.05 1.28,-0.08 1.92,-0.08zm5.54 30.34c0.78,0 1.41,1.42 1.41,3.17 0,1.74 -0.63,3.16 -1.41,3.16 -0.77,0 -1.41,-1.42 -1.41,-3.16 0,-1.75 0.64,-3.17 1.41,-3.17zm7.16 0c0.78,0 1.41,1.42 1.41,3.17 0,1.74 -0.63,3.16 -1.41,3.16 -0.78,0 -1.41,-1.42 -1.41,-3.16 0,-1.75 0.63,-3.17 1.41,-3.17zm-14.31 0c0.78,0 1.41,1.42 1.41,3.17 0,1.74 -0.63,3.16 -1.41,3.16 -0.78,0 -1.41,-1.42 -1.41,-3.16 0,-1.75 0.63,-3.17 1.41,-3.17zm-7.15 0c0.78,0 1.41,1.42 1.41,3.17 0,1.74 -0.63,3.16 -1.41,3.16 -0.78,0 -1.41,-1.42 -1.41,-3.16 0,-1.75 0.63,-3.17 1.41,-3.17zm-7.16 0c0.78,0 1.42,1.42 1.42,3.17 0,1.74 -0.64,3.16 -1.42,3.16 -0.78,0 -1.41,-1.42 -1.41,-3.16 0,-1.75 0.63,-3.17 1.41,-3.17zm23.11 -11c0.78,0 1.42,1.42 1.42,3.16 0,1.75 -0.64,3.16 -1.42,3.16 -0.77,0 -1.4,-1.41 -1.4,-3.16 0,-1.74 0.63,-3.16 1.4,-3.16zm-7.15 0c0.78,0 1.41,1.42 1.41,3.16 0,1.75 -0.63,3.16 -1.41,3.16 -0.78,0 -1.41,-1.41 -1.41,-3.16 0,-1.74 0.63,-3.16 1.41,-3.16zm-7.15 0c0.78,0 1.41,1.42 1.41,3.16 0,1.75 -0.63,3.16 -1.41,3.16 -0.78,0 -1.41,-1.41 -1.41,-3.16 0,-1.74 0.63,-3.16 1.41,-3.16zm-7.15 0c0.77,0 1.4,1.42 1.4,3.16 0,1.75 -0.63,3.16 -1.4,3.16 -0.78,0 -1.42,-1.41 -1.42,-3.16 0,-1.74 0.64,-3.16 1.42,-3.16zm-7.16 0c0.78,0 1.41,1.42 1.41,3.16 0,1.75 -0.63,3.16 -1.41,3.16 -0.78,0 -1.41,-1.41 -1.41,-3.16 0,-1.74 0.63,-3.16 1.41,-3.16zm35.77 0c0.78,0 1.41,1.42 1.41,3.16 0,1.75 -0.63,3.16 -1.41,3.16 -0.78,0 -1.41,-1.41 -1.41,-3.16 0,-1.74 0.63,-3.16 1.41,-3.16zm7.15 0c0.78,0 1.41,1.42 1.41,3.16 0,1.75 -0.63,3.16 -1.41,3.16 -0.78,0 -1.41,-1.41 -1.41,-3.16 0,-1.74 0.63,-3.16 1.41,-3.16zm-12.66 -10.45c0.79,0 1.42,1.41 1.42,3.16 0,1.74 -0.63,3.16 -1.42,3.16 -0.77,0 -1.41,-1.42 -1.41,-3.16 0,-1.75 0.64,-3.16 1.41,-3.16zm-7.15 0c0.78,0 1.41,1.41 1.41,3.16 0,1.74 -0.63,3.16 -1.41,3.16 -0.78,0 -1.41,-1.42 -1.41,-3.16 0,-1.75 0.63,-3.16 1.41,-3.16zm-7.15 0c0.78,0 1.41,1.41 1.41,3.16 0,1.74 -0.63,3.16 -1.41,3.16 -0.78,0 -1.41,-1.42 -1.41,-3.16 0,-1.75 0.63,-3.16 1.41,-3.16zm-7.15 0c0.77,0 1.4,1.41 1.4,3.16 0,1.74 -0.63,3.16 -1.4,3.16 -0.78,0 -1.41,-1.42 -1.41,-3.16 0,-1.75 0.63,-3.16 1.41,-3.16zm28.61 0c0.78,0 1.41,1.41 1.41,3.16 0,1.74 -0.63,3.16 -1.41,3.16 -0.78,0 -1.41,-1.42 -1.41,-3.16 0,-1.75 0.63,-3.16 1.41,-3.16z"/>
   <path class="fil1 str2" d="M191 1.5c12.98,0 23.5,10.52 23.5,23.5 0,12.98 -10.52,23.5 -23.5,23.5 -12.98,0 -23.5,-10.52 -23.5,-23.5 0,-12.98 10.52,-23.5 23.5,-23.5z"/>
  </g>
  <g id="_1521057629280">
   <polygon class="fil0 str0" points="315.5,106.52 345.96,106.52 345.96,136.24 315.5,136.24 "/>
   <polygon class="fil0" points="345.96,106.52 383.65,91.27 383.65,121 345.96,136.24 "/>
   <polygon class="fil1 str0" points="345.96,106.52 383.65,91.27 383.65,121 345.96,136.24 "/>
   <polygon class="fil0" points="353.26,91.07 383.72,91.07 345.84,106.39 315.38,106.39 "/>
   <polygon class="fil1 str0" points="353.26,91.07 383.72,91.07 345.84,106.39 315.38,106.39 "/>
   <path class="fil1 str1" d="M315.5 107.54l30.46 0m-30.46 2.99l30.46 0m-30.46 3l30.46 0m-30.46 2.99l30.46 0m-30.46 3l30.46 0m-30.46 2.99l30.46 0m-30.46 3l30.46 0m-30.46 3l30.46 0m-30.46 2.99l30.46 0m-30.46 3l30.46 0m0.38 -27.08l37.31 -15.11m-37.31 18.1l37.31 -15.11m-37.31 18.11l37.31 -15.11m-37.31 18.11l37.31 -15.11m-37.31 18.1l37.31 -15.11m-37.31 18.1l37.31 -15.1m-37.31 18.1l37.31 -15.11m-37.31 18.11l37.31 -15.11m-37.31 18.1l37.31 -15.11m-37.31 18.11l37.31 -15.11"/>
  </g>
  <g id="_1521057627120">
   <polygon class="fil0 str0" points="358.83,378.81 373.04,378.81 373.04,393.96 358.83,393.96 "/>
   <polygon class="fil0" points="373.04,378.82 390.62,371.05 390.62,386.19 373.04,393.96 "/>
   <polygon class="fil1 str0" points="373.04,378.82 390.62,371.05 390.62,386.19 373.04,393.96 "/>
   <polygon class="fil0" points="376.44,370.94 390.66,370.94 372.98,378.75 358.77,378.75 "/>
   <polygon class="fil1 str0" points="376.44,370.94 390.66,370.94 372.98,378.75 358.77,378.75 "/>
   <line class="fil1 str1" x1="358.83" y1="379.33" x2="373.04" y2= "379.33" />
   <line class="fil1 str1" x1="358.83" y1="380.1" x2="373.04" y2= "380.1" />
   <line class="fil1 str1" x1="358.83" y1="380.86" x2="373.04" y2= "380.86" />
   <line class="fil1 str1" x1="358.83" y1="381.62" x2="373.04" y2= "381.62" />
   <line class="fil1 str1" x1="358.83" y1="382.39" x2="373.04" y2= "382.39" />
   <line class="fil1 str1" x1="358.83" y1="383.15" x2="373.04" y2= "383.15" />
   <line class="fil1 str1" x1="358.83" y1="383.91" x2="373.04" y2= "383.91" />
   <line class="fil1 str1" x1="358.83" y1="384.68" x2="373.04" y2= "384.68" />
   <line class="fil1 str1" x1="358.83" y1="385.44" x2="373.04" y2= "385.44" />
   <line class="fil1 str1" x1="358.83" y1="386.2" x2="373.04" y2= "386.2" />
   <line class="fil1 str1" x1="358.83" y1="386.97" x2="373.04" y2= "386.97" />
   <line class="fil1 str1" x1="358.83" y1="387.73" x2="373.04" y2= "387.73" />
   <line class="fil1 str1" x1="358.83" y1="388.49" x2="373.04" y2= "388.49" />
   <path class="fil1 str1" d="M358.83 389.26l14.21 0m-14.21 0.76l14.21 0"/>
   <line class="fil1 str1" x1="358.83" y1="390.78" x2="373.04" y2= "390.78" />
   <line class="fil1 str1" x1="358.83" y1="391.55" x2="373.04" y2= "391.55" />
   <line class="fil1 str1" x1="358.83" y1="392.31" x2="373.04" y2= "392.31" />
   <line class="fil1 str1" x1="358.83" y1="393.07" x2="373.04" y2= "393.07" />
   <line class="fil1 str1" x1="373.22" y1="379.27" x2="390.62" y2= "371.57" />
   <line class="fil1 str1" x1="373.04" y1="380.03" x2="390.62" y2= "372.11" />
   <line class="fil1 str1" x1="373.22" y1="380.42" x2="390.62" y2= "372.72" />
   <line class="fil1 str1" x1="373.04" y1="381.18" x2="390.62" y2= "373.26" />
   <line class="fil1 str1" x1="373.22" y1="381.56" x2="390.62" y2= "373.86" />
   <line class="fil1 str1" x1="373.04" y1="382.32" x2="390.62" y2= "374.4" />
   <line class="fil1 str1" x1="373.22" y1="382.71" x2="390.62" y2= "375.01" />
   <line class="fil1 str1" x1="373.04" y1="383.47" x2="390.62" y2= "375.55" />
   <line class="fil1 str1" x1="373.22" y1="383.85" x2="390.62" y2= "376.16" />
   <line class="fil1 str1" x1="373.04" y1="384.61" x2="390.62" y2= "376.69" />
   <line class="fil1 str1" x1="373.22" y1="385" x2="390.62" y2= "377.3" />
   <line class="fil1 str1" x1="373.04" y1="385.76" x2="390.62" y2= "377.83" />
   <line class="fil1 str1" x1="373.22" y1="386.14" x2="390.62" y2= "378.44" />
   <line class="fil1 str1" x1="373.04" y1="386.9" x2="390.62" y2= "378.98" />
   <line class="fil1 str1" x1="373.22" y1="387.29" x2="390.62" y2= "379.59" />
   <line class="fil1 str1" x1="373.04" y1="388.05" x2="390.62" y2= "380.13" />
   <line class="fil1 str1" x1="373.22" y1="388.43" x2="390.62" y2= "380.74" />
   <line class="fil1 str1" x1="373.04" y1="389.19" x2="390.62" y2= "381.27" />
   <line class="fil1 str1" x1="373.22" y1="389.58" x2="390.62" y2= "381.88" />
   <line class="fil1 str1" x1="373.04" y1="390.34" x2="390.62" y2= "382.41" />
   <line class="fil1 str1" x1="373.22" y1="390.72" x2="390.62" y2= "383.02" />
   <line class="fil1 str1" x1="373.04" y1="391.48" x2="390.62" y2= "383.56" />
   <line class="fil1 str1" x1="373.22" y1="391.87" x2="390.62" y2= "384.17" />
   <line class="fil1 str1" x1="373.04" y1="392.63" x2="390.62" y2= "384.71" />
   <line class="fil1 str1" x1="373.22" y1="393.01" x2="390.62" y2= "385.31" />
   <line class="fil1 str1" x1="373.04" y1="393.77" x2="390.62" y2= "385.85" />
   <polygon class="fil0 str0" points="373.11,378.74 387.32,378.74 387.32,393.88 373.11,393.88 "/>
   <polygon class="fil0" points="387.32,378.74 404.9,370.97 404.9,386.12 387.32,393.88 "/>
   <polygon class="fil1 str0" points="387.32,378.74 404.9,370.97 404.9,386.12 387.32,393.88 "/>
   <polygon class="fil0" points="390.72,370.86 404.94,370.86 387.26,378.67 373.05,378.67 "/>
   <polygon class="fil1 str0" points="390.72,370.86 404.94,370.86 387.26,378.67 373.05,378.67 "/>
   <line class="fil1 str1" x1="373.11" y1="379.26" x2="387.32" y2= "379.26" />
   <line class="fil1 str1" x1="373.11" y1="380.02" x2="387.32" y2= "380.02" />
   <line class="fil1 str1" x1="373.11" y1="380.78" x2="387.32" y2= "380.78" />
   <line class="fil1 str1" x1="373.11" y1="381.55" x2="387.32" y2= "381.55" />
   <line class="fil1 str1" x1="373.11" y1="382.31" x2="387.32" y2= "382.31" />
   <line class="fil1 str1" x1="373.11" y1="383.07" x2="387.32" y2= "383.07" />
   <line class="fil1 str1" x1="373.11" y1="383.84" x2="387.32" y2= "383.84" />
   <line class="fil1 str1" x1="373.11" y1="384.6" x2="387.32" y2= "384.6" />
   <line class="fil1 str1" x1="373.11" y1="385.36" x2="387.32" y2= "385.36" />
   <line class="fil1 str1" x1="373.11" y1="386.13" x2="387.32" y2= "386.13" />
   <line class="fil1 str1" x1="373.11" y1="386.89" x2="387.32" y2= "386.89" />
   <line class="fil1 str1" x1="373.11" y1="387.65" x2="387.32" y2= "387.65" />
   <line class="fil1 str1" x1="373.11" y1="388.42" x2="387.32" y2= "388.42" />
   <path class="fil1 str1" d="M373.11 389.18l14.21 0m-14.21 0.76l14.21 0"/>
   <line class="fil1 str1" x1="373.11" y1="390.71" x2="387.32" y2= "390.71" />
   <line class="fil1 str1" x1="373.11" y1="391.47" x2="387.32" y2= "391.47" />
   <line class="fil1 str1" x1="373.11" y1="392.23" x2="387.32" y2= "392.23" />
   <line class="fil1 str1" x1="373.11" y1="393" x2="387.32" y2= "393" />
   <path class="fil1 str1" d="M387.49 379.2l17.41 -7.7m-17.41 9.28l17.41 -7.7m-17.41 9.28l17.41 -7.7m-17.41 9.12l17.41 -7.71m-17.41 9.29l17.41 -7.7m-17.41 9.28l17.41 -7.7m-17.41 9.12l17.41 -7.7m-17.41 9.28l17.41 -7.7m-17.41 9.28l17.41 -7.7m-17.41 9.12l17.41 -7.7"/>
   <polygon class="fil0 str0" points="346.5,384.27 360.72,384.27 360.72,399.42 346.5,399.42 "/>
   <polygon class="fil0" points="360.71,384.27 378.29,376.5 378.29,391.65 360.71,399.42 "/>
   <polygon class="fil1 str0" points="360.71,384.27 378.29,376.5 378.29,391.65 360.71,399.42 "/>
   <polygon class="fil0" points="364.11,376.39 378.33,376.39 360.66,384.21 346.44,384.21 "/>
   <polygon class="fil1 str0" points="364.11,376.39 378.33,376.39 360.66,384.21 346.44,384.21 "/>
   <path class="fil1 str1" d="M346.5 384.79l14.21 0m-14.21 1.52l14.21 0m-14.21 1.53l14.21 0m-14.21 1.53l14.21 0m-14.21 1.53l14.21 0m-14.21 1.52l14.21 0m-14.21 1.53l14.21 0m-14.21 1.52l14.21 0m-14.21 1.53l14.21 0m-14.21 1.53l14.21 0m0.18 -13.8l17.4 -7.7"/>
   <line class="fil1 str1" x1="360.71" y1="386.63" x2="378.29" y2= "378.71" />
   <line class="fil1 str1" x1="360.89" y1="387.02" x2="378.29" y2= "379.32" />
   <line class="fil1 str1" x1="360.71" y1="387.77" x2="378.29" y2= "379.85" />
   <line class="fil1 str1" x1="360.89" y1="388.16" x2="378.29" y2= "380.46" />
   <line class="fil1 str1" x1="360.71" y1="388.92" x2="378.29" y2= "381" />
   <line class="fil1 str1" x1="360.89" y1="389.31" x2="378.29" y2= "381.61" />
   <line class="fil1 str1" x1="360.71" y1="390.06" x2="378.29" y2= "382.14" />
   <line class="fil1 str1" x1="360.89" y1="390.45" x2="378.29" y2= "382.75" />
   <line class="fil1 str1" x1="360.71" y1="391.21" x2="378.29" y2= "383.29" />
   <line class="fil1 str1" x1="360.89" y1="391.6" x2="378.29" y2= "383.9" />
   <line class="fil1 str1" x1="360.71" y1="392.36" x2="378.29" y2= "384.43" />
   <path class="fil1 str1" d="M360.89 392.74l17.4 -7.7m-17.4 8.85l17.4 -7.7"/>
   <line class="fil1 str1" x1="360.71" y1="394.64" x2="378.29" y2= "386.72" />
   <path class="fil1 str1" d="M360.89 395.03l17.4 -7.7m-17.4 8.85l17.4 -7.7"/>
   <line class="fil1 str1" x1="360.71" y1="396.93" x2="378.29" y2= "389.01" />
   <line class="fil1 str1" x1="360.89" y1="397.32" x2="378.29" y2= "389.62" />
   <line class="fil1 str1" x1="360.71" y1="398.08" x2="378.29" y2= "390.16" />
   <line class="fil1 str1" x1="360.89" y1="398.47" x2="378.29" y2= "390.77" />
   <line class="fil1 str1" x1="360.71" y1="399.22" x2="378.29" y2= "391.3" />
   <polygon class="fil0 str0" points="360.78,384.19 375,384.19 375,399.34 360.78,399.34 "/>
   <polygon class="fil0" points="374.99,384.19 392.57,376.42 392.57,391.57 374.99,399.34 "/>
   <polygon class="fil1 str0" points="374.99,384.19 392.57,376.42 392.57,391.57 374.99,399.34 "/>
   <polygon class="fil0" points="378.4,376.32 392.61,376.32 374.94,384.13 360.72,384.13 "/>
   <polygon class="fil1 str0" points="378.4,376.32 392.61,376.32 374.94,384.13 360.72,384.13 "/>
   <path class="fil1 str1" d="M360.78 384.71l14.22 0m-14.22 1.53l14.22 0m-14.22 1.52l14.22 0m-14.22 1.53l14.22 0m-14.22 1.53l14.22 0m-14.22 1.52l14.22 0m-14.22 1.53l14.22 0m-14.22 1.53l14.22 0m-14.22 1.52l14.22 0m-14.22 1.53l14.22 0m0.17 -13.8l17.4 -7.7m-17.4 9.28l17.4 -7.7m-17.4 9.28l17.4 -7.7m-17.4 9.12l17.4 -7.7m-17.4 9.28l17.4 -7.7m-17.4 9.28l17.4 -7.7m-17.4 9.12l17.4 -7.7m-17.4 9.28l17.4 -7.7m-17.4 9.28l17.4 -7.7m-17.4 9.12l17.4 -7.7"/>
   <path class="fil1 str3" d="M374.94 368.55l-28.44 0 0 30.87 28.44 0 0 -30.87zm29.96 -13.34l-29.96 13.42 0 30.87 29.96 -13.42 0 -30.87zm0 -0.32l-28.2 0 -30.13 13.69 28.2 0 30.13 -13.69z"/>
  </g>
  <g id="_1521057626976">
   <polygon class="fil0 str2" points="507.68,-20.59 535.53,-20.59 535.53,13.04 507.68,13.04 "/>
   <polygon class="fil0" points="535.53,-20.59 562.5,-32.69 562.5,-4.85 535.53,13.15 "/>
   <polygon class="fil1 str2" points="535.53,-20.59 562.5,-32.69 562.5,-4.85 535.53,13.15 "/>
   <polygon class="fil0" points="533.91,-32.6 561.75,-32.6 535.53,-20.59 507.68,-20.59 "/>
   <polygon class="fil1 str2" points="533.91,-32.6 561.75,-32.6 535.53,-20.59 507.68,-20.59 "/>
   <path class="fil2" d="M512.11 2.82l0 -8.21 1.25 0 0 1.15c0.26,-0.4 0.6,-0.73 1.03,-0.97 0.43,-0.25 0.91,-0.37 1.46,-0.37 0.61,0 1.11,0.13 1.5,0.38 0.39,0.25 0.66,0.6 0.82,1.06 0.65,-0.96 1.5,-1.44 2.54,-1.44 0.81,0 1.44,0.23 1.88,0.68 0.44,0.45 0.65,1.14 0.65,2.08l0 5.64 -1.38 0 0 -5.17c0,-0.56 -0.04,-0.96 -0.14,-1.21 -0.09,-0.24 -0.25,-0.44 -0.49,-0.59 -0.23,-0.15 -0.51,-0.22 -0.83,-0.22 -0.58,0 -1.06,0.19 -1.44,0.57 -0.38,0.39 -0.57,1 -0.57,1.85l0 4.77 -1.4 0 0 -5.34c0,-0.62 -0.11,-1.08 -0.34,-1.39 -0.22,-0.31 -0.59,-0.46 -1.11,-0.46 -0.39,0 -0.75,0.1 -1.09,0.31 -0.33,0.2 -0.57,0.5 -0.72,0.9 -0.15,0.4 -0.22,0.97 -0.22,1.72l0 4.26 -1.4 0z"/>
   <path class="fil2" d="M528.35 1.57l0.2 1.24c-0.39,0.08 -0.74,0.12 -1.05,0.12 -0.51,0 -0.9,-0.08 -1.18,-0.24 -0.27,-0.16 -0.47,-0.37 -0.58,-0.63 -0.12,-0.26 -0.17,-0.81 -0.17,-1.65l0 -4.72 -1.03 0 0 -1.08 1.03 0 0 -2.04 1.38 -0.83 0 2.87 1.4 0 0 1.08 -1.4 0 0 4.8c0,0.4 0.02,0.66 0.07,0.77 0.05,0.11 0.13,0.2 0.24,0.27 0.11,0.07 0.27,0.1 0.48,0.1 0.15,0 0.36,-0.02 0.61,-0.06z"/>
   <path class="fil2" d="M529 -6.6l0.7 -0.09c0.08,0.39 0.21,0.68 0.4,0.85 0.2,0.18 0.43,0.26 0.71,0.26 0.32,0 0.6,-0.11 0.83,-0.34 0.22,-0.22 0.33,-0.5 0.33,-0.84 0,-0.32 -0.1,-0.58 -0.31,-0.79 -0.21,-0.21 -0.47,-0.31 -0.79,-0.31 -0.14,0 -0.3,0.02 -0.49,0.08l0.07 -0.62c0.05,0.01 0.09,0.01 0.12,0.01 0.29,0 0.56,-0.08 0.79,-0.23 0.24,-0.16 0.36,-0.39 0.36,-0.72 0,-0.25 -0.09,-0.46 -0.26,-0.63 -0.17,-0.17 -0.39,-0.25 -0.67,-0.25 -0.27,0 -0.5,0.08 -0.67,0.25 -0.19,0.17 -0.3,0.43 -0.35,0.77l-0.7 -0.12c0.09,-0.47 0.28,-0.83 0.58,-1.09 0.3,-0.26 0.68,-0.39 1.12,-0.39 0.32,0 0.6,0.07 0.86,0.2 0.26,0.14 0.46,0.32 0.6,0.55 0.14,0.23 0.21,0.47 0.21,0.73 0,0.24 -0.07,0.47 -0.2,0.67 -0.13,0.2 -0.33,0.36 -0.58,0.48 0.33,0.07 0.59,0.24 0.78,0.48 0.18,0.25 0.27,0.55 0.27,0.91 0,0.5 -0.18,0.92 -0.54,1.27 -0.36,0.34 -0.81,0.51 -1.36,0.51 -0.5,0 -0.92,-0.15 -1.25,-0.44 -0.32,-0.3 -0.51,-0.68 -0.56,-1.16z"/>
  </g>
  <g id="_1521054292752">
   <path class="fil0" d="M42.49 0.84c9.04,0 16.36,1.93 16.36,4.3 0,2.38 -7.32,4.31 -16.36,4.31 -9.04,0 -16.36,-1.93 -16.36,-4.31 0,-2.37 7.32,-4.3 16.36,-4.3z"/>
   <path class="fil1 str0" d="M42.49 0.84c9.04,0 16.36,1.93 16.36,4.3 0,2.38 -7.32,4.31 -16.36,4.31 -9.04,0 -16.36,-1.93 -16.36,-4.31 0,-2.37 7.32,-4.3 16.36,-4.3z"/>
   <path class="fil3" d="M42.49 4.58c2.27,0 4.11,0.49 4.11,1.08 0,0.6 -1.84,1.08 -4.11,1.08 -2.27,0 -4.11,-0.48 -4.11,-1.08 0,-0.59 1.84,-1.08 4.11,-1.08z"/>
   <path class="fil1 str0" d="M42.49 4.58c2.27,0 4.11,0.49 4.11,1.08 0,0.6 -1.84,1.08 -4.11,1.08 -2.27,0 -4.11,-0.48 -4.11,-1.08 0,-0.59 1.84,-1.08 4.11,-1.08z"/>
   <path class="fil0" d="M58.93 44.65l-0.08 -39.5c0.01,5.31 -32,6.08 -32.72,0l0 39.5c10.59,5.74 25.8,3.68 32.8,0z"/>
   <path class="fil1 str0" d="M58.93 44.65l-0.08 -39.5c0.01,5.31 -32,6.08 -32.72,0l0 39.5c10.59,5.74 25.8,3.68 32.8,0z"/>
   <polygon class="fil3" points="31.51,17.31 35.53,17.32 35.43,44.76 38.99,44.76 39.13,17.42 42.86,17.49 37.35,11.74 "/>
   <path class="fil2" d="M45.02 24.6l1.04 0.14c-0.12,0.71 -0.41,1.28 -0.88,1.69 -0.47,0.41 -1.05,0.61 -1.73,0.61 -0.86,0 -1.55,-0.28 -2.07,-0.84 -0.52,-0.56 -0.79,-1.37 -0.79,-2.42 0,-0.67 0.12,-1.27 0.34,-1.78 0.23,-0.5 0.57,-0.88 1.03,-1.14 0.45,-0.25 0.95,-0.38 1.49,-0.38 0.69,0 1.24,0.17 1.68,0.52 0.43,0.34 0.71,0.83 0.83,1.47l-1.04 0.16c-0.09,-0.42 -0.27,-0.74 -0.52,-0.96 -0.25,-0.21 -0.55,-0.31 -0.9,-0.31 -0.54,0 -0.98,0.19 -1.31,0.57 -0.34,0.38 -0.5,0.99 -0.5,1.82 0,0.85 0.16,1.46 0.48,1.84 0.32,0.38 0.75,0.58 1.27,0.58 0.41,0 0.76,-0.13 1.04,-0.39 0.28,-0.26 0.46,-0.65 0.54,-1.18z"/>
   <path class="fil2" d="M46.97 26.9l0 -6.28 0.95 0 0 0.88c0.2,-0.3 0.46,-0.55 0.79,-0.74 0.32,-0.19 0.7,-0.28 1.11,-0.28 0.47,0 0.85,0.1 1.14,0.29 0.3,0.19 0.51,0.46 0.63,0.81 0.5,-0.73 1.15,-1.1 1.94,-1.1 0.62,0 1.1,0.17 1.44,0.52 0.33,0.34 0.5,0.87 0.5,1.59l0 4.31 -1.06 0 0 -3.96c0,-0.42 -0.03,-0.73 -0.1,-0.92 -0.07,-0.18 -0.2,-0.33 -0.38,-0.44 -0.18,-0.12 -0.39,-0.18 -0.63,-0.18 -0.45,0 -0.81,0.15 -1.1,0.44 -0.29,0.3 -0.44,0.77 -0.44,1.41l0 3.65 -1.06 0 0 -4.08c0,-0.47 -0.09,-0.83 -0.26,-1.06 -0.18,-0.24 -0.46,-0.36 -0.85,-0.36 -0.3,0 -0.58,0.08 -0.83,0.24 -0.26,0.16 -0.44,0.39 -0.55,0.69 -0.12,0.3 -0.18,0.74 -0.18,1.31l0 3.26 -1.06 0z"/>
   <path class="fil2" d="M44.23 30.34l0 5.39c0.72,-1.06 1.58,-1.59 2.59,-1.59 0.51,0 0.97,0.12 1.38,0.36 0.42,0.24 0.73,0.54 0.94,0.92 0.21,0.37 0.35,0.78 0.42,1.24 0.09,0.45 0.12,1.16 0.12,2.11l0 6.23 -2.23 0 0 -5.61c0,-1.12 -0.04,-1.82 -0.13,-2.12 -0.08,-0.3 -0.23,-0.54 -0.45,-0.72 -0.21,-0.17 -0.48,-0.26 -0.8,-0.26 -0.37,0 -0.7,0.11 -1,0.34 -0.29,0.23 -0.5,0.56 -0.63,1.02 -0.14,0.46 -0.21,1.14 -0.21,2.03l0 5.32 -2.23 0 0 -14.66 2.23 0z"/>
  </g>
 </g>
</svg>
