<?xml version="1.0" encoding="UTF-8"?>
<!DOCTYPE svg PUBLIC "-//W3C//DTD SVG 1.1//EN" "http://www.w3.org/Graphics/SVG/1.1/DTD/svg11.dtd">
<!-- Creator: CorelDRAW 2021 (64-Bit) -->
<svg xmlns="http://www.w3.org/2000/svg" xml:space="preserve" width="80px" height="40px" version="1.1" style="shape-rendering:geometricPrecision; text-rendering:geometricPrecision; image-rendering:optimizeQuality; fill-rule:evenodd; clip-rule:evenodd"
viewBox="0 0 90 50"
 xmlns:xlink="http://www.w3.org/1999/xlink"
 xmlns:xodm="http://www.corel.com/coreldraw/odm/2003">
 <defs>
  <style type="text/css">
   <![CDATA[
    .str0 {stroke:#2B2A29;stroke-width:0.9;stroke-linejoin:round;stroke-miterlimit:22.926}
    .str1 {stroke:#2B2A29;stroke-width:0.9;stroke-linejoin:round;stroke-miterlimit:22.926;stroke-dasharray:10.000000 10.000000}
    .fil1 {fill:none}
    .fil0 {fill:#F9FAFF}
    .fil3 {fill:#2B2A29}
    .fil2 {fill:#2B2A29;fill-rule:nonzero}
   ]]>
  </style>
 </defs>
 <g id="Layer_x0020_1">
  <metadata id="CorelCorpID_0Corel-Layer"/>
  <g id="_1482598195680">
   <path class="fil0" d="M76.73 820.29c13.06,4.95 26.94,3.89 41.03,0.23l-9.22 39.64c-14.14,6.28 -27.11,5.98 -39.18,0.47 -12,-5.48 -24.37,-6.66 -38.15,0.11l12.56 -38.6c9.95,-5.84 20.76,-6.47 32.96,-1.85z"/>
   <path class="fil1 str0" d="M76.73 820.29c13.06,4.95 26.94,3.89 41.03,0.23l-9.22 39.64c-14.14,6.28 -27.11,5.98 -39.18,0.47 -12,-5.48 -24.37,-6.66 -38.15,0.11l12.56 -38.6c9.95,-5.84 20.76,-6.47 32.96,-1.85z"/>
   <path class="fil0" d="M41.81 818.1l-10.6 42.64c9.07,-6.95 20,-11.53 33.42,-7.6 9.95,2.91 18.98,5.37 27.65,-1.16l11.3 -43.56c-8.89,3.74 -19,6.53 -29.5,4.15 -13.11,-2.97 -23.27,-2.01 -32.27,5.53z"/>
   <path class="fil1 str0" d="M41.81 818.1l-10.6 42.64c9.07,-6.95 20,-11.53 33.42,-7.6 9.95,2.91 18.98,5.37 27.65,-1.16l11.3 -43.56c-8.89,3.74 -19,6.53 -29.5,4.15 -13.11,-2.97 -23.27,-2.01 -32.27,5.53z"/>
   <path class="fil0" d="M75.58 843.46c10.87,-4.88 18.54,1.45 16.7,8.52l11.3 -43.56c-1.38,-4.88 -9.22,-9.98 -17.63,-3.22l-10.37 38.26z"/>
   <path class="fil1 str0" d="M75.58 843.46c10.87,-4.88 18.54,1.45 16.7,8.52l11.3 -43.56c-1.38,-4.88 -9.22,-9.98 -17.63,-3.22l-10.37 38.26z"/>
  </g>
  <g id="_1482598198368">
   <path class="fil0" d="M8.58 38.59l-0.17 -32.81c6.2,2.23 12.52,2.98 17.91,0 12.05,-6.64 21.56,-4.96 32.81,0 5.62,2.49 12.52,2.16 19.58,0l0 32.64c-6.37,2.47 -13.06,3.47 -19.42,0.67 -11.53,-5.08 -22.09,-5.46 -32.8,-0.17 -5.97,2.95 -12.05,2.76 -17.91,-0.33z"/>
   <path class="fil1 str0" d="M8.58 38.59l-0.17 -32.81c6.2,2.23 12.52,2.98 17.91,0 12.05,-6.64 21.56,-4.96 32.81,0 5.62,2.49 12.52,2.16 19.58,0l0 32.64c-6.37,2.47 -13.06,3.47 -19.42,0.67 -11.53,-5.08 -22.09,-5.46 -32.8,-0.17 -5.97,2.95 -12.05,2.76 -17.91,-0.33z"/>
   <path class="fil1 str1" d="M26.32 5.78l0.17 33.14m32.72 -32.8l0.17 33.14"/>
   <polygon class="fil2" points="85.57,5.48 82.14,9.21 83.81,9.21 83.81,36.66 82.14,36.66 85.57,40.38 89,36.66 87.32,36.66 87.32,9.21 89,9.21 "/>
   <path class="fil3" d="M54.9 43.18c-3.45,-1.1 -6.62,-3.19 -11.08,-3.3l0 0 -0.06 0 -0.07 0 0 0c-4.46,0.11 -7.63,2.2 -11.08,3.3 -7.4,2.84 -13.91,2.58 -21.09,0.07l0.02 -2.47 -4.54 3.87 4.52 4.35 0 -2.51c6.68,2.17 15.04,3.39 23.26,-0.38 2.98,-1.36 5.58,-1.88 8.91,-1.88l0.13 0c3.32,0 5.93,0.52 8.91,1.88 8.22,3.77 16.58,2.55 23.26,0.38l0 2.51 4.52 -4.35 -4.54 -3.87 0.02 2.47c-7.18,2.51 -13.69,2.77 -21.09,-0.07z"/>
  </g>
 </g>
</svg>
