<?xml version="1.0" encoding="UTF-8"?>
<!DOCTYPE svg PUBLIC "-//W3C//DTD SVG 1.1//EN" "http://www.w3.org/Graphics/SVG/1.1/DTD/svg11.dtd">
<!-- Creator: CorelDRAW 2021 (64-Bit) -->
<svg xmlns="http://www.w3.org/2000/svg" xml:space="preserve" width="80px" height="40px" version="1.1" style="shape-rendering:geometricPrecision; text-rendering:geometricPrecision; image-rendering:optimizeQuality; fill-rule:evenodd; clip-rule:evenodd"
viewBox="0 0 90 50"
 xmlns:xlink="http://www.w3.org/1999/xlink"
 xmlns:xodm="http://www.corel.com/coreldraw/odm/2003">
 <defs>
  <style type="text/css">
   <![CDATA[
    .str0 {stroke:#2B2A29;stroke-width:0.9;stroke-linejoin:round;stroke-miterlimit:22.926}
    .str1 {stroke:#2B2A29;stroke-width:0.9;stroke-linejoin:round;stroke-miterlimit:22.926;stroke-dasharray:10.000000 10.000000}
    .fil1 {fill:none}
    .fil0 {fill:#F9FAFF}
   ]]>
  </style>
 </defs>
 <g id="Layer_x0020_1">
  <metadata id="CorelCorpID_0Corel-Layer"/>
  <g id="_1482588559296">
   <path class="fil0" d="M76.73 820.29c13.06,4.95 26.94,3.89 41.03,0.23l-9.22 39.64c-14.14,6.28 -27.11,5.98 -39.18,0.47 -12,-5.48 -24.37,-6.66 -38.15,0.11l12.56 -38.6c9.95,-5.84 20.76,-6.47 32.96,-1.85z"/>
   <path class="fil1 str0" d="M76.73 820.29c13.06,4.95 26.94,3.89 41.03,0.23l-9.22 39.64c-14.14,6.28 -27.11,5.98 -39.18,0.47 -12,-5.48 -24.37,-6.66 -38.15,0.11l12.56 -38.6c9.95,-5.84 20.76,-6.47 32.96,-1.85z"/>
   <path class="fil0" d="M41.81 818.1l-10.6 42.64c9.07,-6.95 20,-11.53 33.42,-7.6 9.95,2.91 18.98,5.37 27.65,-1.16l11.3 -43.56c-8.89,3.74 -19,6.53 -29.5,4.15 -13.11,-2.97 -23.27,-2.01 -32.27,5.53z"/>
   <path class="fil1 str0" d="M41.81 818.1l-10.6 42.64c9.07,-6.95 20,-11.53 33.42,-7.6 9.95,2.91 18.98,5.37 27.65,-1.16l11.3 -43.56c-8.89,3.74 -19,6.53 -29.5,4.15 -13.11,-2.97 -23.27,-2.01 -32.27,5.53z"/>
   <path class="fil0" d="M75.58 843.46c10.87,-4.88 18.54,1.45 16.7,8.52l11.3 -43.56c-1.38,-4.88 -9.22,-9.98 -17.63,-3.22l-10.37 38.26z"/>
   <path class="fil1 str0" d="M75.58 843.46c10.87,-4.88 18.54,1.45 16.7,8.52l11.3 -43.56c-1.38,-4.88 -9.22,-9.98 -17.63,-3.22l-10.37 38.26z"/>
  </g>
  <g id="_1482588558048">
   <path class="fil0" d="M12.1 39.77l-0.16 -32c6.04,2.17 12.2,2.9 17.47,0 11.75,-6.49 21.03,-4.84 31.99,0 5.49,2.42 12.22,2.1 19.11,0l0 31.83c-6.21,2.41 -12.74,3.39 -18.94,0.66 -11.25,-4.95 -21.55,-5.32 -32,-0.17 -5.82,2.87 -11.76,2.69 -17.47,-0.32z"/>
   <path class="fil1 str0" d="M12.1 39.77l-0.16 -32c6.04,2.17 12.2,2.9 17.47,0 11.75,-6.49 21.03,-4.84 31.99,0 5.49,2.42 12.22,2.1 19.11,0l0 31.83c-6.21,2.41 -12.74,3.39 -18.94,0.66 -11.25,-4.95 -21.55,-5.32 -32,-0.17 -5.82,2.87 -11.76,2.69 -17.47,-0.32z"/>
   <path class="fil1 str1" d="M29.4 7.77l0.17 32.32m31.92 -31.99l0.16 32.32"/>
  </g>
 </g>
</svg>
