<?xml version="1.0" encoding="UTF-8"?>
<!DOCTYPE svg PUBLIC "-//W3C//DTD SVG 1.1//EN" "http://www.w3.org/Graphics/SVG/1.1/DTD/svg11.dtd">
<!-- Creator: CorelDRAW 2021 (64-Bit) -->
<svg xmlns="http://www.w3.org/2000/svg" xml:space="preserve" width="90px" height="50px" version="1.1" style="shape-rendering:geometricPrecision; text-rendering:geometricPrecision; image-rendering:optimizeQuality; fill-rule:evenodd; clip-rule:evenodd"
viewBox="0 0 90 50"
 xmlns:xlink="http://www.w3.org/1999/xlink"
 xmlns:xodm="http://www.corel.com/coreldraw/odm/2003">
 <defs>
  <style type="text/css">
   <![CDATA[
    .str2 {stroke:#2B2A29;stroke-width:1.39;stroke-linejoin:round;stroke-miterlimit:22.926}
    .str3 {stroke:#2B2A29;stroke-width:1.47;stroke-linejoin:round;stroke-miterlimit:22.926}
    .str0 {stroke:#2B2A29;stroke-width:0.9;stroke-linejoin:round;stroke-miterlimit:22.926}
    .str1 {stroke:#2B2A29;stroke-width:0.9;stroke-linejoin:round;stroke-miterlimit:22.926;stroke-dasharray:10.000000 10.000000}
    .str4 {stroke:#2B2A29;stroke-width:0.32;stroke-linejoin:round;stroke-miterlimit:22.926}
    .str5 {stroke:#2B2A29;stroke-width:0.32;stroke-linejoin:round;stroke-miterlimit:22.926;stroke-dasharray:5.800000 5.800000}
    .fil1 {fill:none}
    .fil5 {fill:none;fill-rule:nonzero}
    .fil0 {fill:#FEFEFE}
    .fil3 {fill:#2B2A29}
    .fil4 {fill:#FEFEFE;fill-rule:nonzero}
    .fil2 {fill:#2B2A29;fill-rule:nonzero}
   ]]>
  </style>
 </defs>
 <g id="Layer_x0020_1">
  <metadata id="CorelCorpID_0Corel-Layer"/>
  <g id="_1520413998784">
   <path class="fil0" d="M76.73 820.29c13.06,4.95 26.94,3.89 41.03,0.23l-9.22 39.64c-14.14,6.28 -27.11,5.98 -39.18,0.47 -12,-5.48 -24.37,-6.66 -38.15,0.11l12.56 -38.6c9.95,-5.84 20.76,-6.47 32.96,-1.85z"/>
   <path class="fil1 str0" d="M76.73 820.29c13.06,4.95 26.94,3.89 41.03,0.23l-9.22 39.64c-14.14,6.28 -27.11,5.98 -39.18,0.47 -12,-5.48 -24.37,-6.66 -38.15,0.11l12.56 -38.6c9.95,-5.84 20.76,-6.47 32.96,-1.85z"/>
   <path class="fil0" d="M41.81 818.1l-10.6 42.64c9.07,-6.95 20,-11.53 33.42,-7.6 9.95,2.91 18.98,5.37 27.65,-1.16l11.3 -43.56c-8.89,3.74 -19,6.53 -29.5,4.15 -13.11,-2.97 -23.27,-2.01 -32.27,5.53z"/>
   <path class="fil1 str0" d="M41.81 818.1l-10.6 42.64c9.07,-6.95 20,-11.53 33.42,-7.6 9.95,2.91 18.98,5.37 27.65,-1.16l11.3 -43.56c-8.89,3.74 -19,6.53 -29.5,4.15 -13.11,-2.97 -23.27,-2.01 -32.27,5.53z"/>
   <path class="fil0" d="M75.58 843.46c10.87,-4.88 18.54,1.45 16.7,8.52l11.3 -43.56c-1.38,-4.88 -9.22,-9.98 -17.63,-3.22l-10.37 38.26z"/>
   <path class="fil1 str0" d="M75.58 843.46c10.87,-4.88 18.54,1.45 16.7,8.52l11.3 -43.56c-1.38,-4.88 -9.22,-9.98 -17.63,-3.22l-10.37 38.26z"/>
  </g>
  <g id="_1520413998304">
   <path class="fil0" d="M167.58 88.59l-0.17 -32.81c6.2,2.23 12.52,2.98 17.91,0 12.05,-6.64 21.56,-4.96 32.81,0 5.62,2.48 12.52,2.16 19.58,0l0 32.64c-6.37,2.47 -13.06,3.47 -19.42,0.67 -11.53,-5.08 -22.09,-5.46 -32.8,-0.17 -5.97,2.95 -12.05,2.76 -17.91,-0.33z"/>
   <path class="fil1 str0" d="M167.58 88.59l-0.17 -32.81c6.2,2.23 12.52,2.98 17.91,0 12.05,-6.64 21.56,-4.96 32.81,0 5.62,2.48 12.52,2.16 19.58,0l0 32.64c-6.37,2.47 -13.06,3.47 -19.42,0.67 -11.53,-5.08 -22.09,-5.46 -32.8,-0.17 -5.97,2.95 -12.05,2.76 -17.91,-0.33z"/>
   <path class="fil1 str1" d="M185.32 55.78l0.17 33.14m32.72 -32.8l0.17 33.14"/>
   <polygon class="fil2" points="244.57,55.48 241.14,59.21 242.81,59.21 242.81,86.66 241.14,86.66 244.57,90.38 248,86.66 246.32,86.66 246.32,59.21 248,59.21 "/>
   <path class="fil3" d="M213.9 93.18c-3.45,-1.1 -6.62,-3.19 -11.08,-3.3l0 0 -0.06 0 -0.07 0 0 0c-4.46,0.11 -7.63,2.2 -11.08,3.3 -7.4,2.84 -13.91,2.58 -21.09,0.07l0.02 -2.47 -4.54 3.87 4.52 4.35 0 -2.51c6.68,2.17 15.04,3.39 23.26,-0.38 2.98,-1.36 5.58,-1.88 8.91,-1.88l0.13 0c3.32,0 5.93,0.52 8.91,1.88 8.22,3.77 16.58,2.55 23.26,0.38l0 2.51 4.52 -4.35 -4.54 -3.87 0.02 2.47c-7.18,2.51 -13.69,2.77 -21.09,-0.07z"/>
  </g>
  <g id="_1520413994320">
   <path class="fil0" d="M190.98 1.61c0.68,0 1.34,0.03 2,0.09 -0.04,0.3 -0.07,0.62 -0.07,0.95 0,1.75 0.63,3.16 1.41,3.16 0.78,0 1.41,-1.41 1.41,-3.16 0,-0.19 0,-0.38 -0.02,-0.56 1.53,0.32 3,0.78 4.41,1.38 0.15,1.35 0.7,2.34 1.36,2.34 0.43,0 0.82,-0.44 1.08,-1.13 7.05,4.02 11.81,11.62 11.81,20.32 0,3.49 -0.77,6.79 -2.14,9.77 -0.08,-1.59 -0.67,-2.82 -1.4,-2.82 -0.78,0 -1.41,1.42 -1.41,3.17 0,1.37 0.39,2.54 0.94,2.97 -1.95,2.89 -4.53,5.31 -7.54,7.08 -0.18,-1.28 -0.71,-2.21 -1.34,-2.21 -0.78,0 -1.41,1.41 -1.41,3.16 0,0.15 0,0.29 0.01,0.43 -1.47,0.61 -3,1.09 -4.61,1.4 0.17,-0.52 0.26,-1.15 0.26,-1.83 0,-1.75 -0.63,-3.16 -1.41,-3.16 -0.78,0 -1.41,1.41 -1.41,3.16 0,0.83 0.14,1.59 0.38,2.15 -0.76,0.08 -1.53,0.11 -2.31,0.11 -0.93,0 -1.85,-0.05 -2.75,-0.16 0.21,-0.56 0.35,-1.29 0.35,-2.1 0,-1.75 -0.63,-3.16 -1.41,-3.16 -0.78,0 -1.41,1.41 -1.41,3.16 0,0.64 0.09,1.23 0.23,1.73 -1.59,-0.35 -3.12,-0.86 -4.57,-1.5l0.01 -0.23c0,-1.75 -0.64,-3.16 -1.41,-3.16 -0.59,0 -1.09,0.81 -1.31,1.95 -6.67,-4.12 -11.12,-11.5 -11.12,-19.91 0,-3.64 0.84,-7.08 2.32,-10.15 0.21,1.16 0.71,1.97 1.3,1.97 0.78,0 1.41,-1.42 1.41,-3.16 0,-1 -0.2,-1.88 -0.52,-2.46 1.96,-2.68 4.47,-4.92 7.37,-6.56 0.26,0.72 0.65,1.17 1.1,1.17 0.66,0 1.21,-1.01 1.36,-2.38 1.41,-0.59 2.88,-1.05 4.4,-1.35 -0.01,0.18 -0.02,0.37 -0.02,0.57 0,1.75 0.63,3.16 1.41,3.16 0.78,0 1.41,-1.41 1.41,-3.16 0,-0.33 -0.02,-0.66 -0.07,-0.96 0.63,-0.05 1.28,-0.08 1.92,-0.08zm5.54 30.34c0.78,0 1.41,1.42 1.41,3.17 0,1.74 -0.63,3.16 -1.41,3.16 -0.77,0 -1.41,-1.42 -1.41,-3.16 0,-1.75 0.64,-3.17 1.41,-3.17zm7.16 0c0.78,0 1.41,1.42 1.41,3.17 0,1.74 -0.63,3.16 -1.41,3.16 -0.78,0 -1.41,-1.42 -1.41,-3.16 0,-1.75 0.63,-3.17 1.41,-3.17zm-14.31 0c0.78,0 1.41,1.42 1.41,3.17 0,1.74 -0.63,3.16 -1.41,3.16 -0.78,0 -1.41,-1.42 -1.41,-3.16 0,-1.75 0.63,-3.17 1.41,-3.17zm-7.15 0c0.78,0 1.41,1.42 1.41,3.17 0,1.74 -0.63,3.16 -1.41,3.16 -0.78,0 -1.41,-1.42 -1.41,-3.16 0,-1.75 0.63,-3.17 1.41,-3.17zm-7.16 0c0.78,0 1.42,1.42 1.42,3.17 0,1.74 -0.64,3.16 -1.42,3.16 -0.78,0 -1.41,-1.42 -1.41,-3.16 0,-1.75 0.63,-3.17 1.41,-3.17zm23.11 -11c0.78,0 1.42,1.42 1.42,3.16 0,1.75 -0.64,3.16 -1.42,3.16 -0.77,0 -1.4,-1.41 -1.4,-3.16 0,-1.74 0.63,-3.16 1.4,-3.16zm-7.15 0c0.78,0 1.41,1.42 1.41,3.16 0,1.75 -0.63,3.16 -1.41,3.16 -0.78,0 -1.41,-1.41 -1.41,-3.16 0,-1.74 0.63,-3.16 1.41,-3.16zm-7.15 0c0.78,0 1.41,1.42 1.41,3.16 0,1.75 -0.63,3.16 -1.41,3.16 -0.78,0 -1.41,-1.41 -1.41,-3.16 0,-1.74 0.63,-3.16 1.41,-3.16zm-7.15 0c0.77,0 1.4,1.42 1.4,3.16 0,1.75 -0.63,3.16 -1.4,3.16 -0.78,0 -1.42,-1.41 -1.42,-3.16 0,-1.74 0.64,-3.16 1.42,-3.16zm-7.16 0c0.78,0 1.41,1.42 1.41,3.16 0,1.75 -0.63,3.16 -1.41,3.16 -0.78,0 -1.41,-1.41 -1.41,-3.16 0,-1.74 0.63,-3.16 1.41,-3.16zm35.77 0c0.78,0 1.41,1.42 1.41,3.16 0,1.75 -0.63,3.16 -1.41,3.16 -0.78,0 -1.41,-1.41 -1.41,-3.16 0,-1.74 0.63,-3.16 1.41,-3.16zm7.15 0c0.78,0 1.41,1.42 1.41,3.16 0,1.75 -0.63,3.16 -1.41,3.16 -0.78,0 -1.41,-1.41 -1.41,-3.16 0,-1.74 0.63,-3.16 1.41,-3.16zm-12.66 -10.45c0.79,0 1.42,1.41 1.42,3.16 0,1.74 -0.63,3.16 -1.42,3.16 -0.77,0 -1.41,-1.42 -1.41,-3.16 0,-1.75 0.64,-3.16 1.41,-3.16zm-7.15 0c0.78,0 1.41,1.41 1.41,3.16 0,1.74 -0.63,3.16 -1.41,3.16 -0.78,0 -1.41,-1.42 -1.41,-3.16 0,-1.75 0.63,-3.16 1.41,-3.16zm-7.15 0c0.78,0 1.41,1.41 1.41,3.16 0,1.74 -0.63,3.16 -1.41,3.16 -0.78,0 -1.41,-1.42 -1.41,-3.16 0,-1.75 0.63,-3.16 1.41,-3.16zm-7.15 0c0.77,0 1.4,1.41 1.4,3.16 0,1.74 -0.63,3.16 -1.4,3.16 -0.78,0 -1.41,-1.42 -1.41,-3.16 0,-1.75 0.63,-3.16 1.41,-3.16zm28.61 0c0.78,0 1.41,1.41 1.41,3.16 0,1.74 -0.63,3.16 -1.41,3.16 -0.78,0 -1.41,-1.42 -1.41,-3.16 0,-1.75 0.63,-3.16 1.41,-3.16z"/>
   <path class="fil1 str0" d="M190.98 1.61c0.68,0 1.34,0.03 2,0.09 -0.04,0.3 -0.07,0.62 -0.07,0.95 0,1.75 0.63,3.16 1.41,3.16 0.78,0 1.41,-1.41 1.41,-3.16 0,-0.19 0,-0.38 -0.02,-0.56 1.53,0.32 3,0.78 4.41,1.38 0.15,1.35 0.7,2.34 1.36,2.34 0.43,0 0.82,-0.44 1.08,-1.13 7.05,4.02 11.81,11.62 11.81,20.32 0,3.49 -0.77,6.79 -2.14,9.77 -0.08,-1.59 -0.67,-2.82 -1.4,-2.82 -0.78,0 -1.41,1.42 -1.41,3.17 0,1.37 0.39,2.54 0.94,2.97 -1.95,2.89 -4.53,5.31 -7.54,7.08 -0.18,-1.28 -0.71,-2.21 -1.34,-2.21 -0.78,0 -1.41,1.41 -1.41,3.16 0,0.15 0,0.29 0.01,0.43 -1.47,0.61 -3,1.09 -4.61,1.4 0.17,-0.52 0.26,-1.15 0.26,-1.83 0,-1.75 -0.63,-3.16 -1.41,-3.16 -0.78,0 -1.41,1.41 -1.41,3.16 0,0.83 0.14,1.59 0.38,2.15 -0.76,0.08 -1.53,0.11 -2.31,0.11 -0.93,0 -1.85,-0.05 -2.75,-0.16 0.21,-0.56 0.35,-1.29 0.35,-2.1 0,-1.75 -0.63,-3.16 -1.41,-3.16 -0.78,0 -1.41,1.41 -1.41,3.16 0,0.64 0.09,1.23 0.23,1.73 -1.59,-0.35 -3.12,-0.86 -4.57,-1.5l0.01 -0.23c0,-1.75 -0.64,-3.16 -1.41,-3.16 -0.59,0 -1.09,0.81 -1.31,1.95 -6.67,-4.12 -11.12,-11.5 -11.12,-19.91 0,-3.64 0.84,-7.08 2.32,-10.15 0.21,1.16 0.71,1.97 1.3,1.97 0.78,0 1.41,-1.42 1.41,-3.16 0,-1 -0.2,-1.88 -0.52,-2.46 1.96,-2.68 4.47,-4.92 7.37,-6.56 0.26,0.72 0.65,1.17 1.1,1.17 0.66,0 1.21,-1.01 1.36,-2.38 1.41,-0.59 2.88,-1.05 4.4,-1.35 -0.01,0.18 -0.02,0.37 -0.02,0.57 0,1.75 0.63,3.16 1.41,3.16 0.78,0 1.41,-1.41 1.41,-3.16 0,-0.33 -0.02,-0.66 -0.07,-0.96 0.63,-0.05 1.28,-0.08 1.92,-0.08zm5.54 30.34c0.78,0 1.41,1.42 1.41,3.17 0,1.74 -0.63,3.16 -1.41,3.16 -0.77,0 -1.41,-1.42 -1.41,-3.16 0,-1.75 0.64,-3.17 1.41,-3.17zm7.16 0c0.78,0 1.41,1.42 1.41,3.17 0,1.74 -0.63,3.16 -1.41,3.16 -0.78,0 -1.41,-1.42 -1.41,-3.16 0,-1.75 0.63,-3.17 1.41,-3.17zm-14.31 0c0.78,0 1.41,1.42 1.41,3.17 0,1.74 -0.63,3.16 -1.41,3.16 -0.78,0 -1.41,-1.42 -1.41,-3.16 0,-1.75 0.63,-3.17 1.41,-3.17zm-7.15 0c0.78,0 1.41,1.42 1.41,3.17 0,1.74 -0.63,3.16 -1.41,3.16 -0.78,0 -1.41,-1.42 -1.41,-3.16 0,-1.75 0.63,-3.17 1.41,-3.17zm-7.16 0c0.78,0 1.42,1.42 1.42,3.17 0,1.74 -0.64,3.16 -1.42,3.16 -0.78,0 -1.41,-1.42 -1.41,-3.16 0,-1.75 0.63,-3.17 1.41,-3.17zm23.11 -11c0.78,0 1.42,1.42 1.42,3.16 0,1.75 -0.64,3.16 -1.42,3.16 -0.77,0 -1.4,-1.41 -1.4,-3.16 0,-1.74 0.63,-3.16 1.4,-3.16zm-7.15 0c0.78,0 1.41,1.42 1.41,3.16 0,1.75 -0.63,3.16 -1.41,3.16 -0.78,0 -1.41,-1.41 -1.41,-3.16 0,-1.74 0.63,-3.16 1.41,-3.16zm-7.15 0c0.78,0 1.41,1.42 1.41,3.16 0,1.75 -0.63,3.16 -1.41,3.16 -0.78,0 -1.41,-1.41 -1.41,-3.16 0,-1.74 0.63,-3.16 1.41,-3.16zm-7.15 0c0.77,0 1.4,1.42 1.4,3.16 0,1.75 -0.63,3.16 -1.4,3.16 -0.78,0 -1.42,-1.41 -1.42,-3.16 0,-1.74 0.64,-3.16 1.42,-3.16zm-7.16 0c0.78,0 1.41,1.42 1.41,3.16 0,1.75 -0.63,3.16 -1.41,3.16 -0.78,0 -1.41,-1.41 -1.41,-3.16 0,-1.74 0.63,-3.16 1.41,-3.16zm35.77 0c0.78,0 1.41,1.42 1.41,3.16 0,1.75 -0.63,3.16 -1.41,3.16 -0.78,0 -1.41,-1.41 -1.41,-3.16 0,-1.74 0.63,-3.16 1.41,-3.16zm7.15 0c0.78,0 1.41,1.42 1.41,3.16 0,1.75 -0.63,3.16 -1.41,3.16 -0.78,0 -1.41,-1.41 -1.41,-3.16 0,-1.74 0.63,-3.16 1.41,-3.16zm-12.66 -10.45c0.79,0 1.42,1.41 1.42,3.16 0,1.74 -0.63,3.16 -1.42,3.16 -0.77,0 -1.41,-1.42 -1.41,-3.16 0,-1.75 0.64,-3.16 1.41,-3.16zm-7.15 0c0.78,0 1.41,1.41 1.41,3.16 0,1.74 -0.63,3.16 -1.41,3.16 -0.78,0 -1.41,-1.42 -1.41,-3.16 0,-1.75 0.63,-3.16 1.41,-3.16zm-7.15 0c0.78,0 1.41,1.41 1.41,3.16 0,1.74 -0.63,3.16 -1.41,3.16 -0.78,0 -1.41,-1.42 -1.41,-3.16 0,-1.75 0.63,-3.16 1.41,-3.16zm-7.15 0c0.77,0 1.4,1.41 1.4,3.16 0,1.74 -0.63,3.16 -1.4,3.16 -0.78,0 -1.41,-1.42 -1.41,-3.16 0,-1.75 0.63,-3.16 1.41,-3.16zm28.61 0c0.78,0 1.41,1.41 1.41,3.16 0,1.74 -0.63,3.16 -1.41,3.16 -0.78,0 -1.41,-1.42 -1.41,-3.16 0,-1.75 0.63,-3.16 1.41,-3.16z"/>
   <path class="fil1 str2" d="M191 1.5c12.98,0 23.5,10.52 23.5,23.5 0,12.98 -10.52,23.5 -23.5,23.5 -12.98,0 -23.5,-10.52 -23.5,-23.5 0,-12.98 10.52,-23.5 23.5,-23.5z"/>
  </g>
  <g id="_1520413996672">
   <polygon class="fil0 str0" points="315.5,106.52 345.96,106.52 345.96,136.24 315.5,136.24 "/>
   <polygon class="fil0" points="345.96,106.52 383.65,91.27 383.65,121 345.96,136.24 "/>
   <polygon class="fil1 str0" points="345.96,106.52 383.65,91.27 383.65,121 345.96,136.24 "/>
   <polygon class="fil0" points="353.26,91.07 383.72,91.07 345.84,106.39 315.38,106.39 "/>
   <polygon class="fil1 str0" points="353.26,91.07 383.72,91.07 345.84,106.39 315.38,106.39 "/>
   <path class="fil1 str1" d="M315.5 107.54l30.46 0m-30.46 2.99l30.46 0m-30.46 3l30.46 0m-30.46 2.99l30.46 0m-30.46 3l30.46 0m-30.46 2.99l30.46 0m-30.46 3l30.46 0m-30.46 3l30.46 0m-30.46 2.99l30.46 0m-30.46 3l30.46 0m0.38 -27.08l37.31 -15.11m-37.31 18.1l37.31 -15.11m-37.31 18.11l37.31 -15.11m-37.31 18.11l37.31 -15.11m-37.31 18.1l37.31 -15.11m-37.31 18.1l37.31 -15.1m-37.31 18.1l37.31 -15.11m-37.31 18.11l37.31 -15.11m-37.31 18.1l37.31 -15.11m-37.31 18.11l37.31 -15.11"/>
  </g>
  <g id="_1520412750912">
   <polygon class="fil0 str0" points="358.83,378.81 373.04,378.81 373.04,393.96 358.83,393.96 "/>
   <polygon class="fil0" points="373.04,378.82 390.62,371.05 390.62,386.19 373.04,393.96 "/>
   <polygon class="fil1 str0" points="373.04,378.82 390.62,371.05 390.62,386.19 373.04,393.96 "/>
   <polygon class="fil0" points="376.44,370.94 390.66,370.94 372.98,378.75 358.77,378.75 "/>
   <polygon class="fil1 str0" points="376.44,370.94 390.66,370.94 372.98,378.75 358.77,378.75 "/>
   <line class="fil1 str1" x1="358.83" y1="379.33" x2="373.04" y2= "379.33" />
   <line class="fil1 str1" x1="358.83" y1="380.1" x2="373.04" y2= "380.1" />
   <line class="fil1 str1" x1="358.83" y1="380.86" x2="373.04" y2= "380.86" />
   <line class="fil1 str1" x1="358.83" y1="381.62" x2="373.04" y2= "381.62" />
   <line class="fil1 str1" x1="358.83" y1="382.39" x2="373.04" y2= "382.39" />
   <line class="fil1 str1" x1="358.83" y1="383.15" x2="373.04" y2= "383.15" />
   <line class="fil1 str1" x1="358.83" y1="383.91" x2="373.04" y2= "383.91" />
   <line class="fil1 str1" x1="358.83" y1="384.68" x2="373.04" y2= "384.68" />
   <line class="fil1 str1" x1="358.83" y1="385.44" x2="373.04" y2= "385.44" />
   <line class="fil1 str1" x1="358.83" y1="386.2" x2="373.04" y2= "386.2" />
   <line class="fil1 str1" x1="358.83" y1="386.97" x2="373.04" y2= "386.97" />
   <line class="fil1 str1" x1="358.83" y1="387.73" x2="373.04" y2= "387.73" />
   <line class="fil1 str1" x1="358.83" y1="388.49" x2="373.04" y2= "388.49" />
   <path class="fil1 str1" d="M358.83 389.26l14.21 0m-14.21 0.76l14.21 0"/>
   <line class="fil1 str1" x1="358.83" y1="390.78" x2="373.04" y2= "390.78" />
   <line class="fil1 str1" x1="358.83" y1="391.55" x2="373.04" y2= "391.55" />
   <line class="fil1 str1" x1="358.83" y1="392.31" x2="373.04" y2= "392.31" />
   <line class="fil1 str1" x1="358.83" y1="393.07" x2="373.04" y2= "393.07" />
   <line class="fil1 str1" x1="373.22" y1="379.27" x2="390.62" y2= "371.57" />
   <line class="fil1 str1" x1="373.04" y1="380.03" x2="390.62" y2= "372.11" />
   <line class="fil1 str1" x1="373.22" y1="380.42" x2="390.62" y2= "372.72" />
   <line class="fil1 str1" x1="373.04" y1="381.18" x2="390.62" y2= "373.26" />
   <line class="fil1 str1" x1="373.22" y1="381.56" x2="390.62" y2= "373.86" />
   <line class="fil1 str1" x1="373.04" y1="382.32" x2="390.62" y2= "374.4" />
   <line class="fil1 str1" x1="373.22" y1="382.71" x2="390.62" y2= "375.01" />
   <line class="fil1 str1" x1="373.04" y1="383.47" x2="390.62" y2= "375.55" />
   <line class="fil1 str1" x1="373.22" y1="383.85" x2="390.62" y2= "376.16" />
   <line class="fil1 str1" x1="373.04" y1="384.61" x2="390.62" y2= "376.69" />
   <line class="fil1 str1" x1="373.22" y1="385" x2="390.62" y2= "377.3" />
   <line class="fil1 str1" x1="373.04" y1="385.76" x2="390.62" y2= "377.83" />
   <line class="fil1 str1" x1="373.22" y1="386.14" x2="390.62" y2= "378.44" />
   <line class="fil1 str1" x1="373.04" y1="386.9" x2="390.62" y2= "378.98" />
   <line class="fil1 str1" x1="373.22" y1="387.29" x2="390.62" y2= "379.59" />
   <line class="fil1 str1" x1="373.04" y1="388.05" x2="390.62" y2= "380.13" />
   <line class="fil1 str1" x1="373.22" y1="388.43" x2="390.62" y2= "380.74" />
   <line class="fil1 str1" x1="373.04" y1="389.19" x2="390.62" y2= "381.27" />
   <line class="fil1 str1" x1="373.22" y1="389.58" x2="390.62" y2= "381.88" />
   <line class="fil1 str1" x1="373.04" y1="390.34" x2="390.62" y2= "382.41" />
   <line class="fil1 str1" x1="373.22" y1="390.72" x2="390.62" y2= "383.02" />
   <line class="fil1 str1" x1="373.04" y1="391.48" x2="390.62" y2= "383.56" />
   <line class="fil1 str1" x1="373.22" y1="391.87" x2="390.62" y2= "384.17" />
   <line class="fil1 str1" x1="373.04" y1="392.63" x2="390.62" y2= "384.71" />
   <line class="fil1 str1" x1="373.22" y1="393.01" x2="390.62" y2= "385.31" />
   <line class="fil1 str1" x1="373.04" y1="393.77" x2="390.62" y2= "385.85" />
   <polygon class="fil0 str0" points="373.11,378.74 387.32,378.74 387.32,393.88 373.11,393.88 "/>
   <polygon class="fil0" points="387.32,378.74 404.9,370.97 404.9,386.12 387.32,393.88 "/>
   <polygon class="fil1 str0" points="387.32,378.74 404.9,370.97 404.9,386.12 387.32,393.88 "/>
   <polygon class="fil0" points="390.72,370.86 404.94,370.86 387.26,378.67 373.05,378.67 "/>
   <polygon class="fil1 str0" points="390.72,370.86 404.94,370.86 387.26,378.67 373.05,378.67 "/>
   <line class="fil1 str1" x1="373.11" y1="379.26" x2="387.32" y2= "379.26" />
   <line class="fil1 str1" x1="373.11" y1="380.02" x2="387.32" y2= "380.02" />
   <line class="fil1 str1" x1="373.11" y1="380.78" x2="387.32" y2= "380.78" />
   <line class="fil1 str1" x1="373.11" y1="381.55" x2="387.32" y2= "381.55" />
   <line class="fil1 str1" x1="373.11" y1="382.31" x2="387.32" y2= "382.31" />
   <line class="fil1 str1" x1="373.11" y1="383.07" x2="387.32" y2= "383.07" />
   <line class="fil1 str1" x1="373.11" y1="383.84" x2="387.32" y2= "383.84" />
   <line class="fil1 str1" x1="373.11" y1="384.6" x2="387.32" y2= "384.6" />
   <line class="fil1 str1" x1="373.11" y1="385.36" x2="387.32" y2= "385.36" />
   <line class="fil1 str1" x1="373.11" y1="386.13" x2="387.32" y2= "386.13" />
   <line class="fil1 str1" x1="373.11" y1="386.89" x2="387.32" y2= "386.89" />
   <line class="fil1 str1" x1="373.11" y1="387.65" x2="387.32" y2= "387.65" />
   <line class="fil1 str1" x1="373.11" y1="388.42" x2="387.32" y2= "388.42" />
   <path class="fil1 str1" d="M373.11 389.18l14.21 0m-14.21 0.76l14.21 0"/>
   <line class="fil1 str1" x1="373.11" y1="390.71" x2="387.32" y2= "390.71" />
   <line class="fil1 str1" x1="373.11" y1="391.47" x2="387.32" y2= "391.47" />
   <line class="fil1 str1" x1="373.11" y1="392.23" x2="387.32" y2= "392.23" />
   <line class="fil1 str1" x1="373.11" y1="393" x2="387.32" y2= "393" />
   <path class="fil1 str1" d="M387.49 379.2l17.41 -7.7m-17.41 9.28l17.41 -7.7m-17.41 9.28l17.41 -7.7m-17.41 9.12l17.41 -7.71m-17.41 9.29l17.41 -7.7m-17.41 9.28l17.41 -7.7m-17.41 9.12l17.41 -7.7m-17.41 9.28l17.41 -7.7m-17.41 9.28l17.41 -7.7m-17.41 9.12l17.41 -7.7"/>
   <polygon class="fil0 str0" points="346.5,384.27 360.72,384.27 360.72,399.42 346.5,399.42 "/>
   <polygon class="fil0" points="360.71,384.27 378.29,376.5 378.29,391.65 360.71,399.42 "/>
   <polygon class="fil1 str0" points="360.71,384.27 378.29,376.5 378.29,391.65 360.71,399.42 "/>
   <polygon class="fil0" points="364.11,376.39 378.33,376.39 360.66,384.21 346.44,384.21 "/>
   <polygon class="fil1 str0" points="364.11,376.39 378.33,376.39 360.66,384.21 346.44,384.21 "/>
   <path class="fil1 str1" d="M346.5 384.79l14.21 0m-14.21 1.52l14.21 0m-14.21 1.53l14.21 0m-14.21 1.53l14.21 0m-14.21 1.53l14.21 0m-14.21 1.52l14.21 0m-14.21 1.53l14.21 0m-14.21 1.52l14.21 0m-14.21 1.53l14.21 0m-14.21 1.53l14.21 0m0.18 -13.8l17.4 -7.7"/>
   <line class="fil1 str1" x1="360.71" y1="386.63" x2="378.29" y2= "378.71" />
   <line class="fil1 str1" x1="360.89" y1="387.02" x2="378.29" y2= "379.32" />
   <line class="fil1 str1" x1="360.71" y1="387.77" x2="378.29" y2= "379.85" />
   <line class="fil1 str1" x1="360.89" y1="388.16" x2="378.29" y2= "380.46" />
   <line class="fil1 str1" x1="360.71" y1="388.92" x2="378.29" y2= "381" />
   <line class="fil1 str1" x1="360.89" y1="389.31" x2="378.29" y2= "381.61" />
   <line class="fil1 str1" x1="360.71" y1="390.06" x2="378.29" y2= "382.14" />
   <line class="fil1 str1" x1="360.89" y1="390.45" x2="378.29" y2= "382.75" />
   <line class="fil1 str1" x1="360.71" y1="391.21" x2="378.29" y2= "383.29" />
   <line class="fil1 str1" x1="360.89" y1="391.6" x2="378.29" y2= "383.9" />
   <line class="fil1 str1" x1="360.71" y1="392.36" x2="378.29" y2= "384.43" />
   <path class="fil1 str1" d="M360.89 392.74l17.4 -7.7m-17.4 8.85l17.4 -7.7"/>
   <line class="fil1 str1" x1="360.71" y1="394.64" x2="378.29" y2= "386.72" />
   <path class="fil1 str1" d="M360.89 395.03l17.4 -7.7m-17.4 8.85l17.4 -7.7"/>
   <line class="fil1 str1" x1="360.71" y1="396.93" x2="378.29" y2= "389.01" />
   <line class="fil1 str1" x1="360.89" y1="397.32" x2="378.29" y2= "389.62" />
   <line class="fil1 str1" x1="360.71" y1="398.08" x2="378.29" y2= "390.16" />
   <line class="fil1 str1" x1="360.89" y1="398.47" x2="378.29" y2= "390.77" />
   <line class="fil1 str1" x1="360.71" y1="399.22" x2="378.29" y2= "391.3" />
   <polygon class="fil0 str0" points="360.78,384.19 375,384.19 375,399.34 360.78,399.34 "/>
   <polygon class="fil0" points="374.99,384.19 392.57,376.42 392.57,391.57 374.99,399.34 "/>
   <polygon class="fil1 str0" points="374.99,384.19 392.57,376.42 392.57,391.57 374.99,399.34 "/>
   <polygon class="fil0" points="378.4,376.32 392.61,376.32 374.94,384.13 360.72,384.13 "/>
   <polygon class="fil1 str0" points="378.4,376.32 392.61,376.32 374.94,384.13 360.72,384.13 "/>
   <path class="fil1 str1" d="M360.78 384.71l14.22 0m-14.22 1.53l14.22 0m-14.22 1.52l14.22 0m-14.22 1.53l14.22 0m-14.22 1.53l14.22 0m-14.22 1.52l14.22 0m-14.22 1.53l14.22 0m-14.22 1.53l14.22 0m-14.22 1.52l14.22 0m-14.22 1.53l14.22 0m0.17 -13.8l17.4 -7.7m-17.4 9.28l17.4 -7.7m-17.4 9.28l17.4 -7.7m-17.4 9.12l17.4 -7.7m-17.4 9.28l17.4 -7.7m-17.4 9.28l17.4 -7.7m-17.4 9.12l17.4 -7.7m-17.4 9.28l17.4 -7.7m-17.4 9.28l17.4 -7.7m-17.4 9.12l17.4 -7.7"/>
   <path class="fil1 str3" d="M374.94 368.55l-28.44 0 0 30.87 28.44 0 0 -30.87zm29.96 -13.34l-29.96 13.42 0 30.87 29.96 -13.42 0 -30.87zm0 -0.32l-28.2 0 -30.13 13.69 28.2 0 30.13 -13.69z"/>
  </g>
  <g id="_1520412750864">
   <polygon class="fil0 str2" points="507.68,-20.59 535.53,-20.59 535.53,13.04 507.68,13.04 "/>
   <polygon class="fil0" points="535.53,-20.59 562.5,-32.69 562.5,-4.85 535.53,13.15 "/>
   <polygon class="fil1 str2" points="535.53,-20.59 562.5,-32.69 562.5,-4.85 535.53,13.15 "/>
   <polygon class="fil0" points="533.91,-32.6 561.75,-32.6 535.53,-20.59 507.68,-20.59 "/>
   <polygon class="fil1 str2" points="533.91,-32.6 561.75,-32.6 535.53,-20.59 507.68,-20.59 "/>
   <path class="fil2" d="M512.11 2.82l0 -8.21 1.25 0 0 1.15c0.26,-0.4 0.6,-0.73 1.03,-0.97 0.43,-0.25 0.91,-0.37 1.46,-0.37 0.61,0 1.11,0.13 1.5,0.38 0.39,0.25 0.66,0.6 0.82,1.06 0.65,-0.96 1.5,-1.44 2.54,-1.44 0.81,0 1.44,0.23 1.88,0.68 0.44,0.45 0.65,1.14 0.65,2.08l0 5.64 -1.38 0 0 -5.17c0,-0.56 -0.04,-0.96 -0.14,-1.21 -0.09,-0.24 -0.25,-0.44 -0.49,-0.59 -0.23,-0.15 -0.51,-0.22 -0.83,-0.22 -0.58,0 -1.06,0.19 -1.44,0.57 -0.38,0.39 -0.57,1 -0.57,1.85l0 4.77 -1.4 0 0 -5.34c0,-0.62 -0.11,-1.08 -0.34,-1.39 -0.22,-0.31 -0.59,-0.46 -1.11,-0.46 -0.39,0 -0.75,0.1 -1.09,0.31 -0.33,0.2 -0.57,0.5 -0.72,0.9 -0.15,0.4 -0.22,0.97 -0.22,1.72l0 4.26 -1.4 0z"/>
   <path class="fil2" d="M528.35 1.57l0.2 1.24c-0.39,0.08 -0.74,0.12 -1.05,0.12 -0.51,0 -0.9,-0.08 -1.18,-0.24 -0.27,-0.16 -0.47,-0.37 -0.58,-0.63 -0.12,-0.26 -0.17,-0.81 -0.17,-1.65l0 -4.72 -1.03 0 0 -1.08 1.03 0 0 -2.04 1.38 -0.83 0 2.87 1.4 0 0 1.08 -1.4 0 0 4.8c0,0.4 0.02,0.66 0.07,0.77 0.05,0.11 0.13,0.2 0.24,0.27 0.11,0.07 0.27,0.1 0.48,0.1 0.15,0 0.36,-0.02 0.61,-0.06z"/>
   <path class="fil2" d="M529 -6.6l0.7 -0.09c0.08,0.39 0.21,0.68 0.4,0.85 0.2,0.18 0.43,0.26 0.71,0.26 0.32,0 0.6,-0.11 0.83,-0.34 0.22,-0.22 0.33,-0.5 0.33,-0.84 0,-0.32 -0.1,-0.58 -0.31,-0.79 -0.21,-0.21 -0.47,-0.31 -0.79,-0.31 -0.14,0 -0.3,0.02 -0.49,0.08l0.07 -0.62c0.05,0.01 0.09,0.01 0.12,0.01 0.29,0 0.56,-0.08 0.79,-0.23 0.24,-0.16 0.36,-0.39 0.36,-0.72 0,-0.25 -0.09,-0.46 -0.26,-0.63 -0.17,-0.17 -0.39,-0.25 -0.67,-0.25 -0.27,0 -0.5,0.08 -0.67,0.25 -0.19,0.17 -0.3,0.43 -0.35,0.77l-0.7 -0.12c0.09,-0.47 0.28,-0.83 0.58,-1.09 0.3,-0.26 0.68,-0.39 1.12,-0.39 0.32,0 0.6,0.07 0.86,0.2 0.26,0.14 0.46,0.32 0.6,0.55 0.14,0.23 0.21,0.47 0.21,0.73 0,0.24 -0.07,0.47 -0.2,0.67 -0.13,0.2 -0.33,0.36 -0.58,0.48 0.33,0.07 0.59,0.24 0.78,0.48 0.18,0.25 0.27,0.55 0.27,0.91 0,0.5 -0.18,0.92 -0.54,1.27 -0.36,0.34 -0.81,0.51 -1.36,0.51 -0.5,0 -0.92,-0.15 -1.25,-0.44 -0.32,-0.3 -0.51,-0.68 -0.56,-1.16z"/>
  </g>
  <g id="_1520411204608">
   <polygon class="fil0" points="2.93,24.3 13.33,19.52 13.33,28.85 2.93,33.64 "/>
   <polygon class="fil1 str0" points="2.93,24.3 13.33,19.52 13.33,28.85 2.93,33.64 "/>
   <polygon class="fil0 str0" points="2.74,24.31 11.14,24.31 11.14,33.64 2.74,33.64 "/>
   <polygon class="fil0" points="11.14,24.3 21.53,19.52 21.53,28.85 11.14,33.64 "/>
   <polygon class="fil1 str0" points="11.14,24.3 21.53,19.52 21.53,28.85 11.14,33.64 "/>
   <polygon class="fil0" points="13.15,19.45 21.56,19.45 11.11,24.27 2.7,24.27 "/>
   <polygon class="fil1 str0" points="13.15,19.45 21.56,19.45 11.11,24.27 2.7,24.27 "/>
   <path class="fil1 str1" d="M2.74 24.62l8.4 0m-8.4 1.26l8.4 0m-8.4 1.26l8.4 0m-8.4 1.25l8.4 0m-8.4 1.26l8.4 0m-8.4 1.26l8.4 0m-8.4 1.25l8.4 0m-8.4 1.1l8.4 0m0.11 -8.62l10.29 -4.75m-10.3 5.79l10.29 -4.74m-10.29 6.08l10.29 -4.75m-10.29 6.16l10.29 -4.74m-10.29 5.84l10.29 -4.75m-10.29 6.16l10.29 -4.75m-10.29 6.16l10.29 -4.75"/>
   <line class="fil1 str1" x1="11.14" y1="33.52" x2="21.53" y2= "28.64" />
   <polygon class="fil4" points="2.71,42.62 13.72,42.62 13.72,37.69 34.94,37.69 34.94,42.62 44.04,42.62 44.04,37.78 66.56,37.78 66.56,42.62 76.96,42.62 76.94,34.02 2.66,33.91 "/>
   <g>
    <path class="fil2" d="M2.96 33.91l0.05 8.71 -0.61 0 -0.05 -8.71 0.31 -0.32 0.3 0.32zm-0.61 0c0,-0.17 0.14,-0.31 0.31,-0.32 0.16,0 0.3,0.14 0.3,0.32l-0.61 0zm74.6 0.42l-74.29 -0.11 0 -0.63 74.29 0.11 0.3 0.32 -0.3 0.31zm0 -0.63c0.16,0 0.3,0.14 0.3,0.32 0,0.17 -0.14,0.31 -0.3,0.31l0 -0.63zm-0.29 8.92l-0.02 -8.6 0.61 0 0.02 8.6 -0.31 0.32 -0.3 -0.32zm0.61 0c0,0.17 -0.14,0.32 -0.31,0.32 -0.17,0 -0.3,-0.14 -0.3,-0.32l0.61 0zm-10.71 -0.31l10.4 0 0 0.63 -10.4 0 -0.31 -0.32 0.31 -0.31zm0 0.63c-0.17,0 -0.31,-0.14 -0.31,-0.32 0,-0.17 0.14,-0.31 0.31,-0.31l0 0.63zm0.3 -5.16l0 4.84 -0.61 0 0 -4.84 0.31 -0.32 0.3 0.32zm-0.61 0c0,-0.18 0.14,-0.32 0.31,-0.32 0.17,0 0.3,0.14 0.3,0.32l-0.61 0zm-22.21 -0.32l22.52 0 0 0.63 -22.52 0 -0.3 -0.31 0.3 -0.32zm0 0.63c-0.17,0 -0.3,-0.14 -0.3,-0.31 0,-0.18 0.13,-0.32 0.3,-0.32l0 0.63zm-0.3 4.53l0 -4.84 0.61 0 0 4.84 -0.31 0.32 -0.3 -0.32zm0.61 0c0,0.18 -0.14,0.32 -0.31,0.32 -0.17,0 -0.3,-0.14 -0.3,-0.32l0.61 0zm-9.41 -0.31l9.1 0 0 0.63 -9.1 0 -0.31 -0.32 0.31 -0.31zm0 0.63c-0.17,0 -0.31,-0.14 -0.31,-0.32 0,-0.17 0.14,-0.31 0.31,-0.31l0 0.63zm0.3 -5.25l0 4.93 -0.61 0 0 -4.93 0.31 -0.31 0.3 0.31zm-0.61 0c0,-0.17 0.14,-0.31 0.31,-0.31 0.17,0 0.3,0.14 0.3,0.31l-0.61 0zm-20.91 -0.31l21.22 0 0 0.63 -21.22 0 -0.3 -0.32 0.3 -0.31zm0 0.63c-0.17,0 -0.3,-0.14 -0.3,-0.32 0,-0.17 0.13,-0.31 0.3,-0.31l0 0.63zm-0.3 4.61l0 -4.93 0.61 0 0 4.93 -0.31 0.32 -0.3 -0.32zm0.61 0c0,0.18 -0.14,0.32 -0.31,0.32 -0.17,0 -0.3,-0.14 -0.3,-0.32l0.61 0zm-11.32 -0.31l11.01 0 0 0.63 -11.01 0 -0.31 -0.32 0.31 -0.31zm0 0.63c-0.17,0 -0.31,-0.14 -0.31,-0.32 0,-0.17 0.14,-0.31 0.31,-0.31l0 0.63z"/>
   </g>
   <polygon class="fil4" points="76.98,34.22 76.99,42.84 79.31,41.7 79.31,37.44 81.9,36.01 81.9,40.23 84.45,38.55 84.45,34.54 86.57,33.21 86.57,36.72 88,35.82 87.99,28.98 "/>
   <g>
    <path class="fil2" d="M77.22 34.32l0.01 8.61 -0.47 -0.19 -0.02 -8.61 0.11 -0.22 0.37 0.41zm-0.48 -0.19c0,-0.18 0.11,-0.28 0.24,-0.22 0.13,0.05 0.24,0.24 0.24,0.41l-0.48 -0.19zm11.38 -4.83l-11.01 5.24 -0.26 -0.63 11.01 -5.25 0.37 0.42 -0.11 0.22zm-0.26 -0.64c0.11,-0.05 0.26,0.05 0.33,0.23 0.07,0.17 0.04,0.36 -0.07,0.41l-0.26 -0.64zm-0.1 7.06l0 -6.84 0.47 0.2 0.01 6.83 -0.09 0.22 -0.39 -0.41zm0.48 0.19c0,0.18 -0.11,0.28 -0.24,0.22 -0.13,-0.05 -0.24,-0.24 -0.24,-0.41l0.48 0.19zm-1.82 0.5l1.44 -0.9 0.29 0.62 -1.44 0.9 -0.38 -0.41 0.09 -0.21zm0.29 0.62c-0.1,0.06 -0.25,-0.02 -0.33,-0.19 -0.08,-0.17 -0.06,-0.37 0.04,-0.43l0.29 0.62zm0.09 -3.72l0 3.51 -0.47 -0.2 0 -3.51 0.09 -0.21 0.38 0.41zm-0.47 -0.2c0,-0.17 0.11,-0.27 0.24,-0.22 0.13,0.06 0.23,0.24 0.23,0.42l-0.47 -0.2zm-2.03 1.12l2.12 -1.33 0.29 0.62 -2.11 1.33 -0.39 -0.41 0.09 -0.21zm0.3 0.62c-0.11,0.06 -0.26,-0.03 -0.34,-0.2 -0.07,-0.17 -0.06,-0.36 0.04,-0.42l0.3 0.62zm-0.39 3.6l0 -4.01 0.48 0.2 0 4.01 -0.09 0.21 -0.39 -0.41zm0.48 0.2c0,0.17 -0.11,0.27 -0.24,0.21 -0.13,-0.05 -0.24,-0.24 -0.24,-0.41l0.48 0.2zm-2.94 1.27l2.55 -1.68 0.3 0.62 -2.56 1.68 -0.38 -0.41 0.09 -0.21zm0.29 0.62c-0.1,0.07 -0.25,-0.02 -0.33,-0.19 -0.08,-0.17 -0.06,-0.36 0.04,-0.43l0.29 0.62zm0.09 -4.43l0 4.22 -0.47 -0.2 0 -4.22 0.1 -0.21 0.37 0.41zm-0.47 -0.2c0,-0.17 0.11,-0.27 0.24,-0.21 0.13,0.05 0.23,0.24 0.23,0.41l-0.47 -0.2zm-2.49 1.21l2.59 -1.42 0.27 0.63 -2.58 1.42 -0.38 -0.41 0.1 -0.22zm0.28 0.63c-0.11,0.06 -0.25,-0.04 -0.33,-0.21 -0.08,-0.17 -0.05,-0.36 0.05,-0.42l0.28 0.63zm-0.38 3.85l0 -4.26 0.48 0.2 0 4.26 -0.11 0.21 -0.37 -0.41zm0.48 0.2c0,0.17 -0.11,0.27 -0.24,0.21 -0.13,-0.05 -0.24,-0.24 -0.24,-0.41l0.48 0.2zm-2.69 0.72l2.32 -1.14 0.26 0.63 -2.32 1.14 -0.36 -0.41 0.1 -0.22zm0.26 0.63c-0.1,0.05 -0.25,-0.04 -0.32,-0.22 -0.07,-0.17 -0.05,-0.36 0.06,-0.41l0.26 0.63z"/>
   </g>
   <polygon class="fil4" points="11.2,24.3 11.2,33.64 21.6,28.85 21.6,19.52 "/>
   <polygon class="fil5 str4" points="11.2,24.3 21.6,19.52 21.6,28.85 11.2,33.64 "/>
   <polygon class="fil4" points="11.01,33.64 19.41,33.64 19.41,24.3 11.01,24.3 "/>
   <polygon class="fil5 str4" points="11.01,24.3 19.41,24.3 19.41,33.64 11.01,33.64 "/>
   <polygon class="fil4" points="19.41,24.3 19.41,33.64 29.81,28.85 29.81,19.52 "/>
   <polygon class="fil5 str4" points="19.41,24.3 29.81,19.52 29.81,28.85 19.41,33.64 "/>
   <polygon class="fil4" points="21.42,19.45 10.97,24.27 19.38,24.27 29.83,19.45 "/>
   <polygon class="fil5 str4" points="21.42,19.45 29.83,19.45 19.38,24.27 10.97,24.27 "/>
   <path class="fil5 str5" d="M11.01 24.62l8.4 0m-8.4 1.26l8.4 0m-8.4 1.26l8.4 0m-8.4 1.25l8.4 0m-8.4 1.26l8.4 0m-8.4 1.26l8.4 0m-8.4 1.25l8.4 0m-8.4 1.1l8.4 0m0.11 -8.62l10.3 -4.75m-10.3 5.79l10.29 -4.74m-10.29 6.08l10.29 -4.75m-10.29 6.16l10.29 -4.75m-10.29 5.85l10.29 -4.75m-10.29 6.16l10.29 -4.75m-10.29 6.16l10.29 -4.75"/>
   <line class="fil5 str5" x1="19.41" y1="33.52" x2="29.81" y2= "28.64" />
   <polygon class="fil4" points="19.47,24.3 19.47,33.64 29.87,28.85 29.87,19.52 "/>
   <polygon class="fil5 str4" points="19.47,24.3 29.87,19.52 29.87,28.85 19.47,33.64 "/>
   <polygon class="fil4" points="19.28,33.64 27.68,33.64 27.68,24.3 19.28,24.3 "/>
   <polygon class="fil5 str4" points="19.28,24.3 27.68,24.3 27.68,33.64 19.28,33.64 "/>
   <polygon class="fil4" points="27.68,24.3 27.68,33.64 38.08,28.85 38.08,19.52 "/>
   <polygon class="fil5 str4" points="27.68,24.3 38.08,19.52 38.08,28.85 27.68,33.64 "/>
   <polygon class="fil4" points="29.69,19.45 19.24,24.27 27.65,24.27 38.1,19.45 "/>
   <polygon class="fil5 str4" points="29.69,19.45 38.1,19.45 27.65,24.27 19.24,24.27 "/>
   <path class="fil5 str5" d="M19.28 24.62l8.4 0m-8.4 1.26l8.4 0m-8.4 1.26l8.4 0m-8.4 1.25l8.4 0m-8.4 1.26l8.4 0m-8.4 1.26l8.4 0m-8.4 1.25l8.4 0m-8.4 1.1l8.4 0m0.11 -8.62l10.3 -4.75m-10.3 5.79l10.29 -4.74m-10.29 6.08l10.29 -4.75m-10.29 6.16l10.29 -4.75m-10.29 5.85l10.29 -4.75m-10.29 6.16l10.29 -4.75m-10.29 6.16l10.29 -4.75"/>
   <line class="fil5 str5" x1="27.68" y1="33.52" x2="38.08" y2= "28.64" />
   <polygon class="fil4" points="27.74,24.3 27.74,33.64 38.14,28.85 38.14,19.52 "/>
   <polygon class="fil5 str4" points="27.74,24.3 38.14,19.52 38.14,28.85 27.74,33.64 "/>
   <polygon class="fil4" points="27.55,33.64 35.95,33.64 35.95,24.3 27.55,24.3 "/>
   <polygon class="fil5 str4" points="27.55,24.3 35.95,24.3 35.95,33.64 27.55,33.64 "/>
   <polygon class="fil4" points="35.95,24.3 35.95,33.64 46.35,28.85 46.35,19.52 "/>
   <polygon class="fil5 str4" points="35.95,24.3 46.35,19.52 46.35,28.85 35.95,33.64 "/>
   <polygon class="fil4" points="37.96,19.45 27.51,24.27 35.92,24.27 46.37,19.45 "/>
   <polygon class="fil5 str4" points="37.96,19.45 46.37,19.45 35.92,24.27 27.51,24.27 "/>
   <path class="fil5 str5" d="M27.55 24.62l8.4 0m-8.4 1.26l8.4 0m-8.4 1.26l8.4 0m-8.4 1.25l8.4 0m-8.4 1.26l8.4 0m-8.4 1.26l8.4 0m-8.4 1.25l8.4 0m-8.4 1.1l8.4 0m0.11 -8.62l10.3 -4.75m-10.31 5.79l10.3 -4.74m-10.3 6.08l10.3 -4.75m-10.3 6.16l10.3 -4.75m-10.3 5.85l10.3 -4.75m-10.3 6.16l10.3 -4.75m-10.3 6.16l10.3 -4.75"/>
   <line class="fil5 str5" x1="35.95" y1="33.52" x2="46.35" y2= "28.64" />
   <polygon class="fil4" points="36.01,24.3 36.01,33.64 46.41,28.85 46.41,19.52 "/>
   <polygon class="fil5 str4" points="36.01,24.3 46.41,19.52 46.41,28.85 36.01,33.64 "/>
   <polygon class="fil4" points="35.82,33.64 44.22,33.64 44.22,24.3 35.82,24.3 "/>
   <polygon class="fil5 str4" points="35.82,24.3 44.22,24.3 44.22,33.64 35.82,33.64 "/>
   <polygon class="fil4" points="44.22,24.3 44.22,33.64 54.62,28.85 54.62,19.52 "/>
   <polygon class="fil5 str4" points="44.22,24.3 54.62,19.52 54.62,28.85 44.22,33.64 "/>
   <polygon class="fil4" points="46.23,19.45 35.78,24.27 44.19,24.27 54.64,19.45 "/>
   <polygon class="fil5 str4" points="46.23,19.45 54.64,19.45 44.19,24.27 35.79,24.27 "/>
   <path class="fil5 str5" d="M35.82 24.62l8.4 0m-8.4 1.26l8.4 0m-8.4 1.26l8.4 0m-8.4 1.25l8.4 0m-8.4 1.26l8.4 0m-8.4 1.26l8.4 0m-8.4 1.25l8.4 0m-8.4 1.1l8.4 0m0.12 -8.62l10.29 -4.75m-10.31 5.79l10.3 -4.74m-10.3 6.08l10.3 -4.75m-10.3 6.16l10.3 -4.75m-10.3 5.85l10.3 -4.75m-10.3 6.16l10.3 -4.75m-10.3 6.16l10.3 -4.75"/>
   <line class="fil5 str5" x1="44.22" y1="33.52" x2="54.62" y2= "28.64" />
   <polygon class="fil4" points="44.28,24.3 44.28,33.64 54.68,28.85 54.68,19.52 "/>
   <polygon class="fil5 str4" points="44.28,24.3 54.68,19.52 54.68,28.85 44.28,33.64 "/>
   <polygon class="fil4" points="44.09,33.64 52.49,33.64 52.49,24.3 44.09,24.3 "/>
   <polygon class="fil5 str4" points="44.09,24.3 52.49,24.3 52.49,33.64 44.09,33.64 "/>
   <polygon class="fil4" points="52.49,24.3 52.49,33.64 62.89,28.85 62.89,19.52 "/>
   <polygon class="fil5 str4" points="52.49,24.3 62.89,19.52 62.89,28.85 52.49,33.64 "/>
   <polygon class="fil4" points="54.5,19.45 44.05,24.27 52.46,24.27 62.91,19.45 "/>
   <polygon class="fil5 str4" points="54.5,19.45 62.91,19.45 52.46,24.27 44.05,24.27 "/>
   <path class="fil5 str5" d="M44.09 24.62l8.4 0m-8.4 1.26l8.4 0m-8.4 1.26l8.4 0m-8.4 1.25l8.4 0m-8.4 1.26l8.4 0m-8.4 1.26l8.4 0m-8.4 1.25l8.4 0m-8.4 1.1l8.4 0m0.12 -8.62l10.29 -4.75m-10.31 5.79l10.3 -4.74m-10.3 6.08l10.3 -4.75m-10.3 6.16l10.3 -4.75m-10.3 5.85l10.3 -4.75m-10.3 6.16l10.3 -4.75m-10.3 6.16l10.3 -4.75"/>
   <line class="fil5 str5" x1="52.49" y1="33.52" x2="62.89" y2= "28.64" />
   <polygon class="fil4" points="52.55,24.3 52.55,33.64 62.95,28.85 62.95,19.52 "/>
   <polygon class="fil5 str4" points="52.55,24.3 62.95,19.52 62.95,28.85 52.55,33.64 "/>
   <polygon class="fil4" points="52.36,33.64 60.76,33.64 60.76,24.3 52.36,24.3 "/>
   <polygon class="fil5 str4" points="52.36,24.3 60.76,24.3 60.76,33.64 52.36,33.64 "/>
   <polygon class="fil4" points="60.76,24.3 60.76,33.64 71.16,28.85 71.16,19.52 "/>
   <polygon class="fil5 str4" points="60.76,24.3 71.16,19.52 71.16,28.85 60.76,33.64 "/>
   <polygon class="fil4" points="62.77,19.45 52.32,24.27 60.73,24.27 71.18,19.45 "/>
   <polygon class="fil5 str4" points="62.77,19.45 71.18,19.45 60.73,24.27 52.32,24.27 "/>
   <path class="fil5 str5" d="M52.36 24.62l8.4 0m-8.4 1.26l8.4 0m-8.4 1.26l8.4 0m-8.4 1.25l8.4 0m-8.4 1.26l8.4 0m-8.4 1.26l8.4 0m-8.4 1.25l8.4 0m-8.4 1.1l8.4 0m0.11 -8.62l10.3 -4.75m-10.31 5.79l10.3 -4.74m-10.3 6.08l10.3 -4.75m-10.3 6.16l10.3 -4.75m-10.3 5.85l10.3 -4.75m-10.3 6.16l10.3 -4.75m-10.3 6.16l10.3 -4.75"/>
   <line class="fil5 str5" x1="60.76" y1="33.52" x2="71.16" y2= "28.64" />
   <polygon class="fil4" points="60.82,24.3 60.82,33.64 71.22,28.85 71.22,19.52 "/>
   <polygon class="fil5 str4" points="60.82,24.3 71.22,19.52 71.22,28.85 60.82,33.64 "/>
   <polygon class="fil4" points="60.63,33.64 69.03,33.64 69.03,24.3 60.63,24.3 "/>
   <polygon class="fil5 str4" points="60.63,24.3 69.03,24.3 69.03,33.64 60.63,33.64 "/>
   <polygon class="fil4" points="69.03,24.3 69.03,33.64 79.42,28.85 79.42,19.52 "/>
   <polygon class="fil5 str4" points="69.03,24.3 79.43,19.52 79.43,28.85 69.03,33.64 "/>
   <polygon class="fil4" points="71.04,19.45 60.59,24.27 69,24.27 79.45,19.45 "/>
   <polygon class="fil5 str4" points="71.04,19.45 79.45,19.45 69,24.27 60.59,24.27 "/>
   <path class="fil5 str5" d="M60.63 24.62l8.4 0m-8.4 1.26l8.4 0m-8.4 1.26l8.4 0m-8.4 1.25l8.4 0m-8.4 1.26l8.4 0m-8.4 1.26l8.4 0m-8.4 1.25l8.4 0m-8.4 1.1l8.4 0m0.11 -8.62l10.3 -4.75m-10.31 5.79l10.3 -4.74m-10.3 6.08l10.3 -4.75m-10.3 6.16l10.3 -4.75m-10.3 5.85l10.3 -4.75m-10.3 6.16l10.3 -4.75m-10.3 6.16l10.3 -4.75"/>
   <line class="fil5 str5" x1="69.03" y1="33.52" x2="79.43" y2= "28.64" />
   <polygon class="fil4" points="69.09,24.3 69.09,33.64 79.49,28.85 79.49,19.52 "/>
   <polygon class="fil5 str4" points="69.09,24.3 79.49,19.52 79.49,28.85 69.09,33.64 "/>
   <polygon class="fil4" points="68.9,33.64 77.3,33.64 77.3,24.3 68.9,24.3 "/>
   <polygon class="fil5 str4" points="68.9,24.3 77.3,24.3 77.3,33.64 68.9,33.64 "/>
   <polygon class="fil4" points="77.3,24.3 77.3,33.64 87.7,28.85 87.7,19.52 "/>
   <polygon class="fil5 str4" points="77.3,24.3 87.7,19.52 87.7,28.85 77.3,33.64 "/>
   <polygon class="fil4" points="79.31,19.45 68.86,24.27 77.27,24.27 87.72,19.45 "/>
   <polygon class="fil5 str4" points="79.31,19.45 87.72,19.45 77.27,24.27 68.86,24.27 "/>
   <path class="fil5 str5" d="M68.9 24.62l8.4 0m-8.4 1.26l8.4 0m-8.4 1.26l8.4 0m-8.4 1.25l8.4 0m-8.4 1.26l8.4 0m-8.4 1.26l8.4 0m-8.4 1.25l8.4 0m-8.4 1.1l8.4 0m0.11 -8.62l10.3 -4.75m-10.31 5.79l10.3 -4.74m-10.3 6.08l10.3 -4.75m-10.3 6.16l10.3 -4.75m-10.3 5.85l10.3 -4.75m-10.3 6.16l10.3 -4.75m-10.3 6.16l10.3 -4.75"/>
   <line class="fil5 str5" x1="77.3" y1="33.52" x2="87.7" y2= "28.64" />
   <polygon class="fil4" points="2.92,14.83 2.92,24.17 13.31,19.38 13.31,10.04 "/>
   <polygon class="fil5 str4" points="2.92,14.83 13.31,10.04 13.31,19.38 2.92,24.17 "/>
   <polygon class="fil4" points="2.72,24.17 11.13,24.17 11.13,14.83 2.72,14.83 "/>
   <polygon class="fil5 str4" points="2.72,14.83 11.13,14.83 11.13,24.17 2.72,24.17 "/>
   <polygon class="fil4" points="11.13,14.83 11.13,24.17 21.52,19.38 21.52,10.04 "/>
   <polygon class="fil5 str4" points="11.13,14.83 21.52,10.04 21.52,19.38 11.13,24.17 "/>
   <polygon class="fil4" points="13.14,9.98 2.69,14.79 11.09,14.79 21.54,9.98 "/>
   <polygon class="fil5 str4" points="13.14,9.98 21.54,9.98 11.09,14.79 2.69,14.79 "/>
   <path class="fil5 str5" d="M2.72 15.15l8.41 0m-8.41 1.26l8.41 0m-8.41 1.25l8.41 0m-8.41 1.26l8.41 0m-8.41 1.26l8.41 0m-8.41 1.26l8.41 0m-8.41 1.25l8.41 0m-8.41 1.1l8.41 0m0.11 -8.62l10.29 -4.75m-10.3 5.79l10.29 -4.75m-10.29 6.09l10.29 -4.75m-10.29 6.16l10.29 -4.75m-10.29 5.85l10.29 -4.75m-10.29 6.16l10.29 -4.75m-10.29 6.16l10.29 -4.75"/>
   <line class="fil5 str5" x1="11.13" y1="24.05" x2="21.52" y2= "19.17" />
   <polygon class="fil4" points="11.19,14.83 11.19,24.17 21.58,19.38 21.58,10.04 "/>
   <polygon class="fil5 str4" points="11.19,14.83 21.58,10.04 21.58,19.38 11.19,24.17 "/>
   <polygon class="fil4" points="10.99,24.17 19.4,24.17 19.4,14.83 10.99,14.83 "/>
   <polygon class="fil5 str4" points="10.99,14.83 19.4,14.83 19.4,24.17 10.99,24.17 "/>
   <polygon class="fil4" points="19.4,14.83 19.4,24.17 29.79,19.38 29.79,10.04 "/>
   <polygon class="fil5 str4" points="19.4,14.83 29.79,10.04 29.79,19.38 19.4,24.17 "/>
   <polygon class="fil4" points="21.41,9.98 10.96,14.79 19.36,14.79 29.81,9.98 "/>
   <polygon class="fil5 str4" points="21.41,9.98 29.81,9.98 19.36,14.79 10.96,14.79 "/>
   <path class="fil5 str5" d="M10.99 15.15l8.41 0m-8.41 1.26l8.41 0m-8.41 1.25l8.41 0m-8.41 1.26l8.41 0m-8.41 1.26l8.41 0m-8.41 1.26l8.41 0m-8.41 1.25l8.41 0m-8.41 1.1l8.41 0m0.11 -8.62l10.29 -4.75m-10.3 5.79l10.29 -4.75m-10.29 6.09l10.29 -4.75m-10.29 6.16l10.29 -4.75m-10.29 5.85l10.29 -4.75m-10.29 6.16l10.29 -4.75m-10.29 6.16l10.29 -4.75"/>
   <line class="fil5 str5" x1="19.4" y1="24.05" x2="29.79" y2= "19.17" />
   <polygon class="fil4" points="19.46,14.83 19.46,24.17 29.85,19.38 29.85,10.04 "/>
   <polygon class="fil5 str4" points="19.46,14.83 29.85,10.04 29.85,19.38 19.46,24.17 "/>
   <polygon class="fil4" points="19.26,24.17 27.67,24.17 27.67,14.83 19.26,14.83 "/>
   <polygon class="fil5 str4" points="19.26,14.83 27.67,14.83 27.67,24.17 19.26,24.17 "/>
   <polygon class="fil4" points="27.67,14.83 27.67,24.17 38.06,19.38 38.06,10.04 "/>
   <polygon class="fil5 str4" points="27.67,14.83 38.06,10.04 38.06,19.38 27.67,24.17 "/>
   <polygon class="fil4" points="29.68,9.98 19.23,14.79 27.63,14.79 38.08,9.98 "/>
   <polygon class="fil5 str4" points="29.68,9.98 38.08,9.98 27.63,14.79 19.23,14.79 "/>
   <path class="fil5 str5" d="M19.26 15.15l8.41 0m-8.41 1.26l8.41 0m-8.41 1.25l8.41 0m-8.41 1.26l8.41 0m-8.41 1.26l8.41 0m-8.41 1.26l8.41 0m-8.41 1.25l8.41 0m-8.41 1.1l8.41 0m0.11 -8.62l10.29 -4.75m-10.3 5.79l10.29 -4.75m-10.29 6.09l10.29 -4.75m-10.29 6.16l10.29 -4.75m-10.29 5.85l10.29 -4.75m-10.29 6.16l10.29 -4.75m-10.29 6.16l10.29 -4.75"/>
   <line class="fil5 str5" x1="27.67" y1="24.05" x2="38.06" y2= "19.17" />
   <polygon class="fil4" points="27.73,14.83 27.73,24.17 38.12,19.38 38.12,10.04 "/>
   <polygon class="fil5 str4" points="27.73,14.83 38.12,10.04 38.12,19.38 27.73,24.17 "/>
   <polygon class="fil4" points="27.53,24.17 35.94,24.17 35.94,14.83 27.53,14.83 "/>
   <polygon class="fil5 str4" points="27.53,14.83 35.94,14.83 35.94,24.17 27.53,24.17 "/>
   <polygon class="fil4" points="35.94,14.83 35.94,24.17 46.33,19.38 46.33,10.04 "/>
   <polygon class="fil5 str4" points="35.94,14.83 46.33,10.04 46.33,19.38 35.94,24.17 "/>
   <polygon class="fil4" points="37.95,9.98 27.5,14.79 35.9,14.79 46.35,9.98 "/>
   <polygon class="fil5 str4" points="37.95,9.98 46.35,9.98 35.9,14.79 27.5,14.79 "/>
   <path class="fil5 str5" d="M27.53 15.15l8.41 0m-8.41 1.26l8.41 0m-8.41 1.25l8.41 0m-8.41 1.26l8.41 0m-8.41 1.26l8.41 0m-8.41 1.26l8.41 0m-8.41 1.25l8.41 0m-8.41 1.1l8.41 0m0.11 -8.62l10.29 -4.75m-10.3 5.79l10.29 -4.75m-10.29 6.09l10.29 -4.75m-10.29 6.16l10.29 -4.75m-10.29 5.85l10.29 -4.75m-10.29 6.16l10.29 -4.75m-10.29 6.16l10.29 -4.75"/>
   <line class="fil5 str5" x1="35.94" y1="24.05" x2="46.33" y2= "19.17" />
   <polygon class="fil4" points="36,14.83 36,24.17 46.39,19.38 46.39,10.04 "/>
   <polygon class="fil5 str4" points="36,14.83 46.39,10.04 46.39,19.38 36,24.17 "/>
   <polygon class="fil4" points="35.8,24.17 44.21,24.17 44.21,14.83 35.8,14.83 "/>
   <polygon class="fil5 str4" points="35.8,14.83 44.21,14.83 44.21,24.17 35.8,24.17 "/>
   <polygon class="fil4" points="44.21,14.83 44.21,24.17 54.6,19.38 54.6,10.04 "/>
   <polygon class="fil5 str4" points="44.21,14.83 54.6,10.04 54.6,19.38 44.21,24.17 "/>
   <polygon class="fil4" points="46.22,9.98 35.77,14.79 44.17,14.79 54.62,9.98 "/>
   <polygon class="fil5 str4" points="46.22,9.98 54.62,9.98 44.17,14.79 35.77,14.79 "/>
   <path class="fil5 str5" d="M35.8 15.15l8.41 0m-8.41 1.26l8.41 0m-8.41 1.25l8.41 0m-8.41 1.26l8.41 0m-8.41 1.26l8.41 0m-8.41 1.26l8.41 0m-8.41 1.25l8.41 0m-8.41 1.1l8.41 0m0.11 -8.62l10.29 -4.75m-10.3 5.79l10.29 -4.75m-10.29 6.09l10.29 -4.75m-10.29 6.16l10.29 -4.75m-10.29 5.85l10.29 -4.75m-10.29 6.16l10.29 -4.75m-10.29 6.16l10.29 -4.75"/>
   <line class="fil5 str5" x1="44.21" y1="24.05" x2="54.6" y2= "19.17" />
   <polygon class="fil4" points="44.27,14.83 44.27,24.17 54.66,19.38 54.66,10.04 "/>
   <polygon class="fil5 str4" points="44.27,14.83 54.66,10.04 54.66,19.38 44.27,24.17 "/>
   <polygon class="fil4" points="44.07,24.17 52.48,24.17 52.48,14.83 44.07,14.83 "/>
   <polygon class="fil5 str4" points="44.07,14.83 52.48,14.83 52.48,24.17 44.07,24.17 "/>
   <polygon class="fil4" points="52.48,14.83 52.48,24.17 62.87,19.38 62.87,10.04 "/>
   <polygon class="fil5 str4" points="52.48,14.83 62.87,10.04 62.87,19.38 52.48,24.17 "/>
   <polygon class="fil4" points="54.49,9.98 44.04,14.79 52.44,14.79 62.89,9.98 "/>
   <polygon class="fil5 str4" points="54.49,9.98 62.89,9.98 52.44,14.79 44.04,14.79 "/>
   <path class="fil5 str5" d="M44.07 15.15l8.41 0m-8.41 1.26l8.41 0m-8.41 1.25l8.41 0m-8.41 1.26l8.41 0m-8.41 1.26l8.41 0m-8.41 1.26l8.41 0m-8.41 1.25l8.41 0m-8.41 1.1l8.41 0m0.11 -8.62l10.29 -4.75m-10.3 5.79l10.29 -4.75m-10.29 6.09l10.29 -4.75m-10.29 6.16l10.29 -4.75m-10.29 5.85l10.29 -4.75m-10.29 6.16l10.29 -4.75m-10.29 6.16l10.29 -4.75"/>
   <line class="fil5 str5" x1="52.48" y1="24.05" x2="62.87" y2= "19.17" />
   <polygon class="fil4" points="52.54,14.83 52.54,24.17 62.93,19.38 62.93,10.04 "/>
   <polygon class="fil5 str4" points="52.54,14.83 62.93,10.04 62.93,19.38 52.54,24.17 "/>
   <polygon class="fil4" points="52.34,24.17 60.75,24.17 60.75,14.83 52.34,14.83 "/>
   <polygon class="fil5 str4" points="52.34,14.83 60.75,14.83 60.75,24.17 52.34,24.17 "/>
   <polygon class="fil4" points="60.75,14.83 60.75,24.17 71.14,19.38 71.14,10.04 "/>
   <polygon class="fil5 str4" points="60.75,14.83 71.14,10.04 71.14,19.38 60.75,24.17 "/>
   <polygon class="fil4" points="62.76,9.98 52.31,14.79 60.71,14.79 71.16,9.98 "/>
   <polygon class="fil5 str4" points="62.76,9.98 71.16,9.98 60.71,14.79 52.31,14.79 "/>
   <path class="fil5 str5" d="M52.34 15.15l8.41 0m-8.41 1.26l8.41 0m-8.41 1.25l8.41 0m-8.41 1.26l8.41 0m-8.41 1.26l8.41 0m-8.41 1.26l8.41 0m-8.41 1.25l8.41 0m-8.41 1.1l8.41 0m0.11 -8.62l10.29 -4.75m-10.3 5.79l10.29 -4.75m-10.29 6.09l10.29 -4.75m-10.29 6.16l10.29 -4.75m-10.29 5.85l10.29 -4.75m-10.29 6.16l10.29 -4.75m-10.29 6.16l10.29 -4.75"/>
   <line class="fil5 str5" x1="60.75" y1="24.05" x2="71.14" y2= "19.17" />
   <polygon class="fil4" points="60.81,14.83 60.81,24.17 71.2,19.38 71.2,10.04 "/>
   <polygon class="fil5 str4" points="60.81,14.83 71.2,10.04 71.2,19.38 60.81,24.17 "/>
   <polygon class="fil4" points="60.61,24.17 69.02,24.17 69.02,14.83 60.61,14.83 "/>
   <polygon class="fil5 str4" points="60.61,14.83 69.02,14.83 69.02,24.17 60.61,24.17 "/>
   <polygon class="fil4" points="69.02,14.83 69.02,24.17 79.41,19.38 79.41,10.04 "/>
   <polygon class="fil5 str4" points="69.02,14.83 79.41,10.04 79.41,19.38 69.02,24.17 "/>
   <polygon class="fil4" points="71.03,9.98 60.58,14.79 68.98,14.79 79.43,9.98 "/>
   <polygon class="fil5 str4" points="71.03,9.98 79.43,9.98 68.98,14.79 60.58,14.79 "/>
   <path class="fil5 str5" d="M60.61 15.15l8.41 0m-8.41 1.26l8.41 0m-8.41 1.25l8.41 0m-8.41 1.26l8.41 0m-8.41 1.26l8.41 0m-8.41 1.26l8.41 0m-8.41 1.25l8.41 0m-8.41 1.1l8.41 0m0.11 -8.62l10.29 -4.75m-10.3 5.79l10.29 -4.75m-10.29 6.09l10.29 -4.75m-10.29 6.16l10.29 -4.75m-10.29 5.85l10.29 -4.75m-10.29 6.16l10.29 -4.75m-10.29 6.16l10.29 -4.75"/>
   <line class="fil5 str5" x1="69.02" y1="24.05" x2="79.41" y2= "19.17" />
   <polygon class="fil4" points="69.08,14.83 69.08,24.17 79.47,19.38 79.47,10.04 "/>
   <polygon class="fil5 str4" points="69.08,14.83 79.47,10.04 79.47,19.38 69.08,24.17 "/>
   <polygon class="fil4" points="68.88,24.17 77.29,24.17 77.29,14.83 68.88,14.83 "/>
   <polygon class="fil5 str4" points="68.88,14.83 77.29,14.83 77.29,24.17 68.88,24.17 "/>
   <polygon class="fil4" points="77.29,14.83 77.29,24.17 87.68,19.38 87.68,10.04 "/>
   <polygon class="fil5 str4" points="77.29,14.83 87.68,10.04 87.68,19.38 77.29,24.17 "/>
   <polygon class="fil4" points="79.3,9.98 68.85,14.79 77.25,14.79 87.7,9.98 "/>
   <polygon class="fil5 str4" points="79.3,9.98 87.7,9.98 77.25,14.79 68.85,14.79 "/>
   <path class="fil5 str5" d="M68.88 15.15l8.41 0m-8.41 1.26l8.41 0m-8.41 1.25l8.41 0m-8.41 1.26l8.41 0m-8.41 1.26l8.41 0m-8.41 1.26l8.41 0m-8.41 1.25l8.41 0m-8.41 1.1l8.41 0m0.11 -8.62l10.29 -4.75m-10.3 5.79l10.29 -4.75m-10.29 6.09l10.29 -4.75m-10.29 6.16l10.29 -4.75m-10.29 5.85l10.29 -4.75m-10.29 6.16l10.29 -4.75m-10.29 6.16l10.29 -4.75"/>
   <line class="fil5 str5" x1="77.29" y1="24.05" x2="87.68" y2= "19.17" />
  </g>
 </g>
</svg>
