<?xml version="1.0" encoding="UTF-8"?>
<!DOCTYPE svg PUBLIC "-//W3C//DTD SVG 1.1//EN" "http://www.w3.org/Graphics/SVG/1.1/DTD/svg11.dtd">
<!-- Creator: CorelDRAW 2021 (64-Bit) -->
<svg xmlns="http://www.w3.org/2000/svg" xml:space="preserve" width="80px" height="40px" version="1.1" style="shape-rendering:geometricPrecision; text-rendering:geometricPrecision; image-rendering:optimizeQuality; fill-rule:evenodd; clip-rule:evenodd"
viewBox="0 0 90 50"
 xmlns:xlink="http://www.w3.org/1999/xlink"
 xmlns:xodm="http://www.corel.com/coreldraw/odm/2003">
 <defs>
  <style type="text/css">
   <![CDATA[
    .str2 {stroke:#2B2A29;stroke-width:1.39;stroke-linejoin:round;stroke-miterlimit:22.926}
    .str0 {stroke:#2B2A29;stroke-width:0.9;stroke-linejoin:round;stroke-miterlimit:22.926}
    .str1 {stroke:#2B2A29;stroke-width:0.9;stroke-linejoin:round;stroke-miterlimit:22.926;stroke-dasharray:10.000000 10.000000}
    .fil1 {fill:none}
    .fil0 {fill:#F9FAFF}
    .fil3 {fill:#2B2A29}
    .fil2 {fill:#2B2A29;fill-rule:nonzero}
   ]]>
  </style>
 </defs>
 <g id="Layer_x0020_1">
  <metadata id="CorelCorpID_0Corel-Layer"/>
  <g id="_1520936270944">
   <path class="fil0" d="M76.73 820.29c13.06,4.95 26.94,3.89 41.03,0.23l-9.22 39.64c-14.14,6.28 -27.11,5.98 -39.18,0.47 -12,-5.48 -24.37,-6.66 -38.15,0.11l12.56 -38.6c9.95,-5.84 20.76,-6.47 32.96,-1.85z"/>
   <path class="fil1 str0" d="M76.73 820.29c13.06,4.95 26.94,3.89 41.03,0.23l-9.22 39.64c-14.14,6.28 -27.11,5.98 -39.18,0.47 -12,-5.48 -24.37,-6.66 -38.15,0.11l12.56 -38.6c9.95,-5.84 20.76,-6.47 32.96,-1.85z"/>
   <path class="fil0" d="M41.81 818.1l-10.6 42.64c9.07,-6.95 20,-11.53 33.42,-7.6 9.95,2.91 18.98,5.37 27.65,-1.16l11.3 -43.56c-8.89,3.74 -19,6.53 -29.5,4.15 -13.11,-2.97 -23.27,-2.01 -32.27,5.53z"/>
   <path class="fil1 str0" d="M41.81 818.1l-10.6 42.64c9.07,-6.95 20,-11.53 33.42,-7.6 9.95,2.91 18.98,5.37 27.65,-1.16l11.3 -43.56c-8.89,3.74 -19,6.53 -29.5,4.15 -13.11,-2.97 -23.27,-2.01 -32.27,5.53z"/>
   <path class="fil0" d="M75.58 843.46c10.87,-4.88 18.54,1.45 16.7,8.52l11.3 -43.56c-1.38,-4.88 -9.22,-9.98 -17.63,-3.22l-10.37 38.26z"/>
   <path class="fil1 str0" d="M75.58 843.46c10.87,-4.88 18.54,1.45 16.7,8.52l11.3 -43.56c-1.38,-4.88 -9.22,-9.98 -17.63,-3.22l-10.37 38.26z"/>
  </g>
  <g id="_1520936269744">
   <path class="fil0" d="M167.58 88.59l-0.17 -32.81c6.2,2.23 12.52,2.98 17.91,0 12.05,-6.64 21.56,-4.96 32.81,0 5.62,2.48 12.52,2.16 19.58,0l0 32.64c-6.37,2.47 -13.06,3.47 -19.42,0.67 -11.53,-5.08 -22.09,-5.46 -32.8,-0.17 -5.97,2.95 -12.05,2.76 -17.91,-0.33z"/>
   <path class="fil1 str0" d="M167.58 88.59l-0.17 -32.81c6.2,2.23 12.52,2.98 17.91,0 12.05,-6.64 21.56,-4.96 32.81,0 5.62,2.48 12.52,2.16 19.58,0l0 32.64c-6.37,2.47 -13.06,3.47 -19.42,0.67 -11.53,-5.08 -22.09,-5.46 -32.8,-0.17 -5.97,2.95 -12.05,2.76 -17.91,-0.33z"/>
   <path class="fil1 str1" d="M185.32 55.78l0.17 33.14m32.72 -32.8l0.17 33.14"/>
   <polygon class="fil2" points="244.57,55.48 241.14,59.21 242.81,59.21 242.81,86.66 241.14,86.66 244.57,90.38 248,86.66 246.32,86.66 246.32,59.21 248,59.21 "/>
   <path class="fil3" d="M213.9 93.18c-3.45,-1.1 -6.62,-3.19 -11.08,-3.3l0 0 -0.06 0 -0.07 0 0 0c-4.46,0.11 -7.63,2.2 -11.08,3.3 -7.4,2.84 -13.91,2.58 -21.09,0.07l0.02 -2.47 -4.54 3.87 4.52 4.35 0 -2.51c6.68,2.17 15.04,3.39 23.26,-0.38 2.98,-1.36 5.58,-1.88 8.91,-1.88l0.13 0c3.32,0 5.93,0.52 8.91,1.88 8.22,3.77 16.58,2.55 23.26,0.38l0 2.51 4.52 -4.35 -4.54 -3.87 0.02 2.47c-7.18,2.51 -13.69,2.77 -21.09,-0.07z"/>
  </g>
  <g id="_1520936268400">
   <path class="fil0" d="M190.98 1.61c0.68,0 1.34,0.03 2,0.09 -0.04,0.3 -0.07,0.62 -0.07,0.95 0,1.75 0.63,3.16 1.41,3.16 0.78,0 1.41,-1.41 1.41,-3.16 0,-0.19 0,-0.38 -0.02,-0.56 1.53,0.32 3,0.78 4.41,1.38 0.15,1.35 0.7,2.34 1.36,2.34 0.43,0 0.82,-0.44 1.08,-1.13 7.05,4.02 11.81,11.62 11.81,20.32 0,3.49 -0.77,6.79 -2.14,9.77 -0.08,-1.59 -0.67,-2.82 -1.4,-2.82 -0.78,0 -1.41,1.42 -1.41,3.17 0,1.37 0.39,2.54 0.94,2.97 -1.95,2.89 -4.53,5.31 -7.54,7.08 -0.18,-1.28 -0.71,-2.21 -1.34,-2.21 -0.78,0 -1.41,1.41 -1.41,3.16 0,0.15 0,0.29 0.01,0.43 -1.47,0.61 -3,1.09 -4.61,1.4 0.17,-0.52 0.26,-1.15 0.26,-1.83 0,-1.75 -0.63,-3.16 -1.41,-3.16 -0.78,0 -1.41,1.41 -1.41,3.16 0,0.83 0.14,1.59 0.38,2.15 -0.76,0.08 -1.53,0.11 -2.31,0.11 -0.93,0 -1.85,-0.05 -2.75,-0.16 0.21,-0.56 0.35,-1.29 0.35,-2.1 0,-1.75 -0.63,-3.16 -1.41,-3.16 -0.78,0 -1.41,1.41 -1.41,3.16 0,0.64 0.09,1.23 0.23,1.73 -1.59,-0.35 -3.12,-0.86 -4.57,-1.5l0.01 -0.23c0,-1.75 -0.64,-3.16 -1.41,-3.16 -0.59,0 -1.09,0.81 -1.31,1.95 -6.67,-4.12 -11.12,-11.5 -11.12,-19.91 0,-3.64 0.84,-7.08 2.32,-10.15 0.21,1.16 0.71,1.97 1.3,1.97 0.78,0 1.41,-1.42 1.41,-3.16 0,-1 -0.2,-1.88 -0.52,-2.46 1.96,-2.68 4.47,-4.92 7.37,-6.56 0.26,0.72 0.65,1.17 1.1,1.17 0.66,0 1.21,-1.01 1.36,-2.38 1.41,-0.59 2.88,-1.05 4.4,-1.35 -0.01,0.18 -0.02,0.37 -0.02,0.57 0,1.75 0.63,3.16 1.41,3.16 0.78,0 1.41,-1.41 1.41,-3.16 0,-0.33 -0.02,-0.66 -0.07,-0.96 0.63,-0.05 1.28,-0.08 1.92,-0.08zm5.54 30.34c0.78,0 1.41,1.42 1.41,3.17 0,1.74 -0.63,3.16 -1.41,3.16 -0.77,0 -1.41,-1.42 -1.41,-3.16 0,-1.75 0.64,-3.17 1.41,-3.17zm7.16 0c0.78,0 1.41,1.42 1.41,3.17 0,1.74 -0.63,3.16 -1.41,3.16 -0.78,0 -1.41,-1.42 -1.41,-3.16 0,-1.75 0.63,-3.17 1.41,-3.17zm-14.31 0c0.78,0 1.41,1.42 1.41,3.17 0,1.74 -0.63,3.16 -1.41,3.16 -0.78,0 -1.41,-1.42 -1.41,-3.16 0,-1.75 0.63,-3.17 1.41,-3.17zm-7.15 0c0.78,0 1.41,1.42 1.41,3.17 0,1.74 -0.63,3.16 -1.41,3.16 -0.78,0 -1.41,-1.42 -1.41,-3.16 0,-1.75 0.63,-3.17 1.41,-3.17zm-7.16 0c0.78,0 1.42,1.42 1.42,3.17 0,1.74 -0.64,3.16 -1.42,3.16 -0.78,0 -1.41,-1.42 -1.41,-3.16 0,-1.75 0.63,-3.17 1.41,-3.17zm23.11 -11c0.78,0 1.42,1.42 1.42,3.16 0,1.75 -0.64,3.16 -1.42,3.16 -0.77,0 -1.4,-1.41 -1.4,-3.16 0,-1.74 0.63,-3.16 1.4,-3.16zm-7.15 0c0.78,0 1.41,1.42 1.41,3.16 0,1.75 -0.63,3.16 -1.41,3.16 -0.78,0 -1.41,-1.41 -1.41,-3.16 0,-1.74 0.63,-3.16 1.41,-3.16zm-7.15 0c0.78,0 1.41,1.42 1.41,3.16 0,1.75 -0.63,3.16 -1.41,3.16 -0.78,0 -1.41,-1.41 -1.41,-3.16 0,-1.74 0.63,-3.16 1.41,-3.16zm-7.15 0c0.77,0 1.4,1.42 1.4,3.16 0,1.75 -0.63,3.16 -1.4,3.16 -0.78,0 -1.42,-1.41 -1.42,-3.16 0,-1.74 0.64,-3.16 1.42,-3.16zm-7.16 0c0.78,0 1.41,1.42 1.41,3.16 0,1.75 -0.63,3.16 -1.41,3.16 -0.78,0 -1.41,-1.41 -1.41,-3.16 0,-1.74 0.63,-3.16 1.41,-3.16zm35.77 0c0.78,0 1.41,1.42 1.41,3.16 0,1.75 -0.63,3.16 -1.41,3.16 -0.78,0 -1.41,-1.41 -1.41,-3.16 0,-1.74 0.63,-3.16 1.41,-3.16zm7.15 0c0.78,0 1.41,1.42 1.41,3.16 0,1.75 -0.63,3.16 -1.41,3.16 -0.78,0 -1.41,-1.41 -1.41,-3.16 0,-1.74 0.63,-3.16 1.41,-3.16zm-12.66 -10.45c0.79,0 1.42,1.41 1.42,3.16 0,1.74 -0.63,3.16 -1.42,3.16 -0.77,0 -1.41,-1.42 -1.41,-3.16 0,-1.75 0.64,-3.16 1.41,-3.16zm-7.15 0c0.78,0 1.41,1.41 1.41,3.16 0,1.74 -0.63,3.16 -1.41,3.16 -0.78,0 -1.41,-1.42 -1.41,-3.16 0,-1.75 0.63,-3.16 1.41,-3.16zm-7.15 0c0.78,0 1.41,1.41 1.41,3.16 0,1.74 -0.63,3.16 -1.41,3.16 -0.78,0 -1.41,-1.42 -1.41,-3.16 0,-1.75 0.63,-3.16 1.41,-3.16zm-7.15 0c0.77,0 1.4,1.41 1.4,3.16 0,1.74 -0.63,3.16 -1.4,3.16 -0.78,0 -1.41,-1.42 -1.41,-3.16 0,-1.75 0.63,-3.16 1.41,-3.16zm28.61 0c0.78,0 1.41,1.41 1.41,3.16 0,1.74 -0.63,3.16 -1.41,3.16 -0.78,0 -1.41,-1.42 -1.41,-3.16 0,-1.75 0.63,-3.16 1.41,-3.16z"/>
   <path class="fil1 str0" d="M190.98 1.61c0.68,0 1.34,0.03 2,0.09 -0.04,0.3 -0.07,0.62 -0.07,0.95 0,1.75 0.63,3.16 1.41,3.16 0.78,0 1.41,-1.41 1.41,-3.16 0,-0.19 0,-0.38 -0.02,-0.56 1.53,0.32 3,0.78 4.41,1.38 0.15,1.35 0.7,2.34 1.36,2.34 0.43,0 0.82,-0.44 1.08,-1.13 7.05,4.02 11.81,11.62 11.81,20.32 0,3.49 -0.77,6.79 -2.14,9.77 -0.08,-1.59 -0.67,-2.82 -1.4,-2.82 -0.78,0 -1.41,1.42 -1.41,3.17 0,1.37 0.39,2.54 0.94,2.97 -1.95,2.89 -4.53,5.31 -7.54,7.08 -0.18,-1.28 -0.71,-2.21 -1.34,-2.21 -0.78,0 -1.41,1.41 -1.41,3.16 0,0.15 0,0.29 0.01,0.43 -1.47,0.61 -3,1.09 -4.61,1.4 0.17,-0.52 0.26,-1.15 0.26,-1.83 0,-1.75 -0.63,-3.16 -1.41,-3.16 -0.78,0 -1.41,1.41 -1.41,3.16 0,0.83 0.14,1.59 0.38,2.15 -0.76,0.08 -1.53,0.11 -2.31,0.11 -0.93,0 -1.85,-0.05 -2.75,-0.16 0.21,-0.56 0.35,-1.29 0.35,-2.1 0,-1.75 -0.63,-3.16 -1.41,-3.16 -0.78,0 -1.41,1.41 -1.41,3.16 0,0.64 0.09,1.23 0.23,1.73 -1.59,-0.35 -3.12,-0.86 -4.57,-1.5l0.01 -0.23c0,-1.75 -0.64,-3.16 -1.41,-3.16 -0.59,0 -1.09,0.81 -1.31,1.95 -6.67,-4.12 -11.12,-11.5 -11.12,-19.91 0,-3.64 0.84,-7.08 2.32,-10.15 0.21,1.16 0.71,1.97 1.3,1.97 0.78,0 1.41,-1.42 1.41,-3.16 0,-1 -0.2,-1.88 -0.52,-2.46 1.96,-2.68 4.47,-4.92 7.37,-6.56 0.26,0.72 0.65,1.17 1.1,1.17 0.66,0 1.21,-1.01 1.36,-2.38 1.41,-0.59 2.88,-1.05 4.4,-1.35 -0.01,0.18 -0.02,0.37 -0.02,0.57 0,1.75 0.63,3.16 1.41,3.16 0.78,0 1.41,-1.41 1.41,-3.16 0,-0.33 -0.02,-0.66 -0.07,-0.96 0.63,-0.05 1.28,-0.08 1.92,-0.08zm5.54 30.34c0.78,0 1.41,1.42 1.41,3.17 0,1.74 -0.63,3.16 -1.41,3.16 -0.77,0 -1.41,-1.42 -1.41,-3.16 0,-1.75 0.64,-3.17 1.41,-3.17zm7.16 0c0.78,0 1.41,1.42 1.41,3.17 0,1.74 -0.63,3.16 -1.41,3.16 -0.78,0 -1.41,-1.42 -1.41,-3.16 0,-1.75 0.63,-3.17 1.41,-3.17zm-14.31 0c0.78,0 1.41,1.42 1.41,3.17 0,1.74 -0.63,3.16 -1.41,3.16 -0.78,0 -1.41,-1.42 -1.41,-3.16 0,-1.75 0.63,-3.17 1.41,-3.17zm-7.15 0c0.78,0 1.41,1.42 1.41,3.17 0,1.74 -0.63,3.16 -1.41,3.16 -0.78,0 -1.41,-1.42 -1.41,-3.16 0,-1.75 0.63,-3.17 1.41,-3.17zm-7.16 0c0.78,0 1.42,1.42 1.42,3.17 0,1.74 -0.64,3.16 -1.42,3.16 -0.78,0 -1.41,-1.42 -1.41,-3.16 0,-1.75 0.63,-3.17 1.41,-3.17zm23.11 -11c0.78,0 1.42,1.42 1.42,3.16 0,1.75 -0.64,3.16 -1.42,3.16 -0.77,0 -1.4,-1.41 -1.4,-3.16 0,-1.74 0.63,-3.16 1.4,-3.16zm-7.15 0c0.78,0 1.41,1.42 1.41,3.16 0,1.75 -0.63,3.16 -1.41,3.16 -0.78,0 -1.41,-1.41 -1.41,-3.16 0,-1.74 0.63,-3.16 1.41,-3.16zm-7.15 0c0.78,0 1.41,1.42 1.41,3.16 0,1.75 -0.63,3.16 -1.41,3.16 -0.78,0 -1.41,-1.41 -1.41,-3.16 0,-1.74 0.63,-3.16 1.41,-3.16zm-7.15 0c0.77,0 1.4,1.42 1.4,3.16 0,1.75 -0.63,3.16 -1.4,3.16 -0.78,0 -1.42,-1.41 -1.42,-3.16 0,-1.74 0.64,-3.16 1.42,-3.16zm-7.16 0c0.78,0 1.41,1.42 1.41,3.16 0,1.75 -0.63,3.16 -1.41,3.16 -0.78,0 -1.41,-1.41 -1.41,-3.16 0,-1.74 0.63,-3.16 1.41,-3.16zm35.77 0c0.78,0 1.41,1.42 1.41,3.16 0,1.75 -0.63,3.16 -1.41,3.16 -0.78,0 -1.41,-1.41 -1.41,-3.16 0,-1.74 0.63,-3.16 1.41,-3.16zm7.15 0c0.78,0 1.41,1.42 1.41,3.16 0,1.75 -0.63,3.16 -1.41,3.16 -0.78,0 -1.41,-1.41 -1.41,-3.16 0,-1.74 0.63,-3.16 1.41,-3.16zm-12.66 -10.45c0.79,0 1.42,1.41 1.42,3.16 0,1.74 -0.63,3.16 -1.42,3.16 -0.77,0 -1.41,-1.42 -1.41,-3.16 0,-1.75 0.64,-3.16 1.41,-3.16zm-7.15 0c0.78,0 1.41,1.41 1.41,3.16 0,1.74 -0.63,3.16 -1.41,3.16 -0.78,0 -1.41,-1.42 -1.41,-3.16 0,-1.75 0.63,-3.16 1.41,-3.16zm-7.15 0c0.78,0 1.41,1.41 1.41,3.16 0,1.74 -0.63,3.16 -1.41,3.16 -0.78,0 -1.41,-1.42 -1.41,-3.16 0,-1.75 0.63,-3.16 1.41,-3.16zm-7.15 0c0.77,0 1.4,1.41 1.4,3.16 0,1.74 -0.63,3.16 -1.4,3.16 -0.78,0 -1.41,-1.42 -1.41,-3.16 0,-1.75 0.63,-3.16 1.41,-3.16zm28.61 0c0.78,0 1.41,1.41 1.41,3.16 0,1.74 -0.63,3.16 -1.41,3.16 -0.78,0 -1.41,-1.42 -1.41,-3.16 0,-1.75 0.63,-3.16 1.41,-3.16z"/>
   <path class="fil1 str2" d="M191 1.5c12.98,0 23.5,10.52 23.5,23.5 0,12.98 -10.52,23.5 -23.5,23.5 -12.98,0 -23.5,-10.52 -23.5,-23.5 0,-12.98 10.52,-23.5 23.5,-23.5z"/>
  </g>
  <g id="_1520936266336">
   <polygon class="fil0 str0" points="11.59,18.65 42.05,18.65 42.05,48.37 11.59,48.37 "/>
   <polygon class="fil0" points="42.05,18.65 79.74,3.4 79.74,33.13 42.05,48.37 "/>
   <polygon class="fil1 str0" points="42.05,18.65 79.74,3.4 79.74,33.13 42.05,48.37 "/>
   <polygon class="fil0" points="49.35,3.2 79.81,3.2 41.93,18.52 11.47,18.52 "/>
   <polygon class="fil1 str0" points="49.35,3.2 79.81,3.2 41.93,18.52 11.47,18.52 "/>
   <path class="fil1 str1" d="M11.59 19.67l30.46 0m-30.46 2.99l30.46 0m-30.46 3l30.46 0m-30.46 2.99l30.46 0m-30.46 3l30.46 0m-30.46 2.99l30.46 0m-30.46 3l30.46 0m-30.46 3l30.46 0m-30.46 2.99l30.46 0m-30.46 3l30.46 0m0.38 -27.09l37.31 -15.1m-37.31 18.1l37.31 -15.11m-37.31 18.11l37.31 -15.11m-37.31 18.11l37.31 -15.11m-37.31 18.1l37.31 -15.11m-37.31 18.1l37.31 -15.11m-37.31 18.11l37.31 -15.11m-37.31 18.11l37.31 -15.11m-37.31 18.1l37.31 -15.11m-37.31 18.11l37.31 -15.11"/>
  </g>
 </g>
</svg>
