<?xml version="1.0" encoding="UTF-8"?>
<!DOCTYPE svg PUBLIC "-//W3C//DTD SVG 1.1//EN" "http://www.w3.org/Graphics/SVG/1.1/DTD/svg11.dtd">
<!-- Creator: CorelDRAW 2021 (64-Bit) -->
<svg xmlns="http://www.w3.org/2000/svg" xml:space="preserve" width="90px" height="50px" version="1.1" style="shape-rendering:geometricPrecision; text-rendering:geometricPrecision; image-rendering:optimizeQuality; fill-rule:evenodd; clip-rule:evenodd"
viewBox="0 0 90 50"
 xmlns:xlink="http://www.w3.org/1999/xlink"
 xmlns:xodm="http://www.corel.com/coreldraw/odm/2003">
 <defs>
  <style type="text/css">
   <![CDATA[
    .str0 {stroke:#2B2A29;stroke-width:0.9;stroke-linejoin:round;stroke-miterlimit:22.926}
    .fil1 {fill:none}
    .fil0 {fill:#FEFEFE}
   ]]>
  </style>
 </defs>
 <g id="Layer_x0020_1">
  <metadata id="CorelCorpID_0Corel-Layer"/>
  <g id="_1482592841552">
   <path class="fil0" d="M76.73 820.29c13.06,4.95 26.94,3.89 41.03,0.23l-9.22 39.64c-14.14,6.28 -27.11,5.98 -39.18,0.47 -12,-5.48 -24.37,-6.66 -38.15,0.11l12.56 -38.6c9.95,-5.84 20.76,-6.47 32.96,-1.85z"/>
   <path class="fil1 str0" d="M76.73 820.29c13.06,4.95 26.94,3.89 41.03,0.23l-9.22 39.64c-14.14,6.28 -27.11,5.98 -39.18,0.47 -12,-5.48 -24.37,-6.66 -38.15,0.11l12.56 -38.6c9.95,-5.84 20.76,-6.47 32.96,-1.85z"/>
   <path class="fil0" d="M41.81 818.1l-10.6 42.64c9.07,-6.95 20,-11.53 33.42,-7.6 9.95,2.91 18.98,5.37 27.65,-1.16l11.3 -43.56c-8.89,3.74 -19,6.53 -29.5,4.15 -13.11,-2.97 -23.27,-2.01 -32.27,5.53z"/>
   <path class="fil1 str0" d="M41.81 818.1l-10.6 42.64c9.07,-6.95 20,-11.53 33.42,-7.6 9.95,2.91 18.98,5.37 27.65,-1.16l11.3 -43.56c-8.89,3.74 -19,6.53 -29.5,4.15 -13.11,-2.97 -23.27,-2.01 -32.27,5.53z"/>
   <path class="fil0" d="M75.58 843.46c10.87,-4.88 18.54,1.45 16.7,8.52l11.3 -43.56c-1.38,-4.88 -9.22,-9.98 -17.63,-3.22l-10.37 38.26z"/>
   <path class="fil1 str0" d="M75.58 843.46c10.87,-4.88 18.54,1.45 16.7,8.52l11.3 -43.56c-1.38,-4.88 -9.22,-9.98 -17.63,-3.22l-10.37 38.26z"/>
  </g>
  <g id="_1482592841120">
   <path class="fil0" d="M44.29 15.84c9.34,3.53 19.26,2.78 29.34,0.16l-6.6 28.35c-10.1,4.49 -19.38,4.27 -28.01,0.33 -8.58,-3.92 -17.42,-4.76 -27.28,0.08l8.99 -27.6c7.1,-4.18 14.84,-4.63 23.56,-1.32z"/>
   <path class="fil1 str0" d="M44.29 15.84c9.34,3.53 19.26,2.78 29.34,0.16l-6.6 28.35c-10.1,4.49 -19.38,4.27 -28.01,0.33 -8.58,-3.92 -17.42,-4.76 -27.28,0.08l8.99 -27.6c7.1,-4.18 14.84,-4.63 23.56,-1.32z"/>
   <path class="fil0" d="M19.32 14.27l-7.58 30.49c6.49,-4.97 14.3,-8.25 23.9,-5.44 7.11,2.08 13.57,3.84 19.77,-0.82l8.08 -31.15c-6.36,2.68 -13.59,4.67 -21.1,2.97 -9.37,-2.13 -16.63,-1.45 -23.07,3.95z"/>
   <path class="fil1 str0" d="M19.32 14.27l-7.58 30.49c6.49,-4.97 14.3,-8.25 23.9,-5.44 7.11,2.08 13.57,3.84 19.77,-0.82l8.08 -31.15c-6.36,2.68 -13.59,4.67 -21.1,2.97 -9.37,-2.13 -16.63,-1.45 -23.07,3.95z"/>
   <path class="fil0" d="M43.47 32.4c7.77,-3.49 13.26,1.04 11.94,6.1l8.08 -31.15c-0.99,-3.49 -6.59,-7.14 -12.61,-2.31l-7.41 27.36z"/>
   <path class="fil1 str0" d="M43.47 32.4c7.77,-3.49 13.26,1.04 11.94,6.1l8.08 -31.15c-0.99,-3.49 -6.59,-7.14 -12.61,-2.31l-7.41 27.36z"/>
  </g>
 </g>
</svg>
